<svg width="537" height="450" xmlns="http://www.w3.org/2000/svg" xmlns:xlink="http://www.w3.org/1999/xlink" overflow="hidden"><defs><clipPath id="clip0"><rect x="0" y="0" width="537" height="450"/></clipPath></defs><g clip-path="url(#clip0)"><rect x="0" y="0" width="537" height="449.887" fill="#FFFFFF"/><rect x="115" y="1.99948" width="383" height="316.921" stroke="#000000" stroke-width="2.00124" stroke-miterlimit="8" fill="#FFFFFF"/><rect x="93" y="25.9935" width="384" height="316.921" stroke="#000000" stroke-width="2.00124" stroke-miterlimit="8" fill="#FFFFFF"/><rect x="63" y="46.9882" width="383" height="316.921" stroke="#000000" stroke-width="2.00124" stroke-miterlimit="8" fill="#FFFFFF"/><rect x="33" y="69.9825" width="383" height="316.921" stroke="#000000" stroke-width="2.00124" stroke-miterlimit="8" fill="#FFFFFF"/><rect x="1.99998" y="92.9767" width="384" height="315.921" stroke="#000000" stroke-width="2.00124" stroke-miterlimit="8" fill="#FFFFFF"/><text font-family="Cambria Math,Cambria Math_MSFontService,sans-serif" font-weight="400" font-size="32" transform="matrix(1 0 0 0.99975 383.902 442)">𝐫<tspan font-size="23" x="12.6145" y="7.00175">𝟏</tspan><tspan font-size="32" x="32.5511" y="-27.0068">𝐫</tspan><tspan font-size="23" x="45.1656" y="-21.0053">𝟐</tspan><tspan font-size="32" x="119.669" y="-92.023">𝐫</tspan><tspan font-size="23" x="132.283" y="-85.0213">𝐦</tspan><tspan font-size="32" x="102.817" y="-82.0205">.</tspan><tspan font-size="32" x="84.8055" y="-67.0168">.</tspan><tspan font-size="32" x="68.9661" y="-53.0133">.</tspan></text><text font-family="Cambria Math,Cambria Math_MSFontService,sans-serif" font-weight="400" font-size="32" transform="matrix(-1.83697e-16 -0.999499 1.00025 -1.83651e-16 33.1105 371)">𝐞<tspan font-size="23" x="17.0085" y="6.53575">𝟏</tspan><tspan font-size="32" x="32.016" y="5.87978e-15"> </tspan><tspan font-size="32" x="39.0195" y="7.16598e-15"> </tspan><tspan font-size="32" x="46.023" y="8.45218e-15"> </tspan><tspan font-size="32" x="53.0266" y="9.73838e-15">𝐞</tspan><tspan font-size="23" x="71.0356" y="6.53575">𝟐</tspan><tspan font-size="32" x="89.0446" y="1.63531e-14"> </tspan><tspan font-size="32" x="96.0481" y="1.76393e-14"> </tspan><tspan font-size="32" x="103.052" y="1.89255e-14"> </tspan><tspan font-size="32" x="113.057" y="2.0763e-14">…</tspan><tspan font-size="32" x="139.07" y="2.55403e-14"> </tspan><tspan font-size="32" x="146.073" y="2.68265e-14"> </tspan><tspan font-size="32" x="153.077" y="2.81127e-14"> </tspan><tspan font-size="32" x="160.08" y="2.93989e-14"> </tspan><tspan font-size="32" x="167.084" y="3.06851e-14"> </tspan><tspan font-size="32" x="174.087" y="3.19713e-14"> </tspan><tspan font-size="32" x="181.091" y="3.32575e-14"> </tspan><tspan font-size="32" x="191.096" y="3.50949e-14">𝐞</tspan><tspan font-size="23" x="208.104" y="6.53575">𝐧</tspan></text><text font-family="Cambria Math,Cambria Math_MSFontService,sans-serif" font-weight="400" font-size="32" transform="matrix(1 0 0 0.99975 86.6121 124)">𝐞<tspan font-size="23" x="17.5109" y="6.0015">𝟏</tspan><tspan font-size="32" x="53.7794" y="0">𝐞</tspan><tspan font-size="23" x="71.2902" y="6.0015">𝟐</tspan><tspan font-size="32" x="89.2948" y="0"> </tspan>  <tspan font-size="32" x="112.976" y="0">…</tspan><tspan font-size="32" x="139.659" y="0"> </tspan>   <tspan font-size="32" x="167.677" y="0"> </tspan> <tspan font-size="32" x="181.685" y="0"> </tspan><tspan font-size="32" x="191.358" y="0">𝐞</tspan><tspan font-size="23" x="208.869" y="6.0015">𝐧</tspan></text></g></svg>