<svg width="378" height="284" xmlns="http://www.w3.org/2000/svg" xmlns:xlink="http://www.w3.org/1999/xlink" overflow="hidden"><defs><clipPath id="clip0"><rect x="0" y="0" width="378" height="284"/></clipPath></defs><g clip-path="url(#clip0)"><rect x="0" y="0" width="378" height="284.501" fill="#FFFFFF"/><path d="M0.813355-1.26034 288.538 184.422 286.911 186.943-0.813355 1.26034ZM290.531 178.567 299.068 193.003 282.398 191.171Z" fill="#4472C4" transform="matrix(1 0 0 -1.00176 11.5001 270.98)"/><path d="M1.26976-0.798572 113.245 177.246 110.706 178.843-1.26976 0.798572ZM117.526 172.782 119.163 189.473 104.828 180.768Z" fill="#00B050" transform="matrix(1 0 0 -1.00176 11.5001 272.452)"/><path d="M131.5 82.1447 134.5 82.1447 134.5 85.15 131.5 85.15ZM137.5 82.1447 140.5 82.1447 140.5 85.15 137.5 85.15ZM143.5 82.1447 146.5 82.1447 146.5 85.15 143.5 85.15ZM149.5 82.1447 152.5 82.1447 152.5 85.15 149.5 85.15ZM155.5 82.1447 158.5 82.1447 158.5 85.15 155.5 85.15ZM161.5 82.1447 164.5 82.1447 164.5 85.15 161.5 85.15ZM167.5 82.1447 170.5 82.1447 170.5 85.15 167.5 85.15ZM173.5 82.1447 176.5 82.1447 176.5 85.15 173.5 85.15ZM179.5 82.1447 182.5 82.1447 182.5 85.15 179.5 85.15ZM185.5 82.1447 188.5 82.1447 188.5 85.15 185.5 85.15ZM191.5 82.1447 194.5 82.1447 194.5 85.15 191.5 85.15ZM197.5 82.1447 200.5 82.1447 200.5 85.15 197.5 85.15ZM203.5 82.1447 206.5 82.1447 206.5 85.15 203.5 85.15ZM209.5 82.1447 212.5 82.1447 212.5 85.15 209.5 85.15ZM215.5 82.1447 218.5 82.1447 218.5 85.15 215.5 85.15ZM221.5 82.1447 224.5 82.1447 224.5 85.15 221.5 85.15ZM227.5 82.1447 230.5 82.1447 230.5 85.15 227.5 85.15ZM233.5 82.1447 236.5 82.1447 236.5 85.15 233.5 85.15ZM239.5 82.1447 242.5 82.1447 242.5 85.15 239.5 85.15ZM245.5 82.1447 248.5 82.1447 248.5 85.15 245.5 85.15ZM251.5 82.1447 254.5 82.1448 254.5 85.15 251.5 85.15ZM257.5 82.1448 260.5 82.1448 260.5 85.15 257.5 85.15ZM263.5 82.1448 266.5 82.1448 266.5 85.15 263.5 85.15ZM269.5 82.1448 272.5 82.1448 272.5 85.1501 269.5 85.15ZM275.5 82.1448 278.5 82.1448 278.5 85.1501 275.5 85.1501ZM279.457 76.1342 294.457 83.6474 279.457 91.1606Z" fill="#C00000"/><text fill="#00B050" font-family="Times New Roman,Times New Roman_MSFontService,sans-serif" font-weight="400" font-size="24" transform="matrix(1 0 0 1.00176 26.6685 142)">IKEA<tspan fill="#C00000" font-size="24" x="160.34" y="-69.8768">sells</tspan><tspan fill="#4472C4" font-size="24" x="172.264" y="30.9454">furniture, food</tspan></text><path d="M2-7.73754e-07 2.0001 253.37-1.9999 253.37-2 7.73754e-07ZM10.0001 251.37 0.000104987 271.37-9.9999 251.37Z" transform="matrix(1 0 0 -1.00176 11 272.85)"/><path d="M11 269.474 358.994 269.475 358.994 273.482 11 273.482ZM356.994 261.46 376.994 271.478 356.994 281.496Z"/></g></svg>