<svg width="3088" height="1122" xmlns="http://www.w3.org/2000/svg" xmlns:xlink="http://www.w3.org/1999/xlink" overflow="hidden"><defs><clipPath id="clip0"><rect x="764" y="618" width="3088" height="1122"/></clipPath><clipPath id="clip1"><rect x="3457" y="1027" width="396" height="396"/></clipPath><clipPath id="clip2"><rect x="3457" y="1027" width="396" height="396"/></clipPath><clipPath id="clip3"><rect x="3457" y="1027" width="396" height="396"/></clipPath></defs><g clip-path="url(#clip0)" transform="translate(-764 -618)"><g clip-path="url(#clip1)"><g clip-path="url(#clip2)"><g clip-path="url(#clip3)"><path d="M3708.28 1313.99C3712.64 1305.1 3722.93 1285.19 3732.35 1274.9 3740 1266.29 3746.04 1256.38 3750.21 1245.64 3754.57 1234.25 3756.99 1222.21 3757.36 1210.03L3757.36 1206.49C3757.36 1149.68 3711.31 1103.62 3654.5 1103.62 3597.69 1103.62 3551.64 1149.68 3551.64 1206.49L3551.64 1210.03C3552.01 1222.21 3554.43 1234.25 3558.79 1245.63 3562.96 1256.37 3569.01 1266.28 3576.65 1274.89 3586.07 1285.14 3596.36 1305.1 3600.72 1313.98 3602.05 1316.65 3604.78 1318.34 3607.76 1318.34L3701.24 1318.34C3704.22 1318.34 3706.95 1316.66 3708.28 1313.99ZM3700.99 1310.12 3608.01 1310.12C3602.7 1299.33 3592.47 1279.92 3582.82 1269.43 3575.82 1261.56 3570.29 1252.5 3566.49 1242.68 3562.46 1232.2 3560.22 1221.12 3559.86 1209.9L3559.86 1206.64C3559.82 1154.37 3602.16 1111.97 3654.42 1111.93 3706.69 1111.89 3749.09 1154.22 3749.14 1206.49L3749.14 1209.9C3748.79 1221.11 3746.56 1232.18 3742.55 1242.65 3738.77 1252.44 3733.26 1261.48 3726.3 1269.33 3716.49 1280.05 3706.27 1299.41 3700.99 1310.12Z"/><path d="M3703.88 1347.39C3703.88 1345.12 3702.03 1343.28 3699.76 1343.28L3609.24 1343.28C3606.97 1343.28 3605.12 1345.12 3605.12 1347.39 3605.12 1349.66 3606.97 1351.5 3609.24 1351.5L3699.76 1351.5C3702.03 1351.5 3703.88 1349.66 3703.88 1347.39Z"/><path d="M3634.84 1375.02C3632.56 1375.02 3630.72 1376.85 3630.71 1379.12 3630.71 1379.24 3630.71 1379.36 3630.72 1379.48 3631.76 1392.6 3643.24 1402.4 3656.37 1401.36 3668.05 1400.44 3677.33 1391.16 3678.25 1379.48 3678.44 1377.21 3676.75 1375.23 3674.48 1375.05 3674.37 1375.04 3674.25 1375.03 3674.14 1375.03ZM3654.52 1393.2C3648.1 1393.15 3642.35 1389.22 3639.98 1383.25L3669.03 1383.25C3666.68 1389.21 3660.94 1393.15 3654.52 1393.2Z"/><path d="M3650.39 1047.57 3650.39 1084.6C3650.39 1086.88 3652.23 1088.72 3654.5 1088.72 3656.77 1088.72 3658.61 1086.88 3658.61 1084.6L3658.61 1047.57C3658.61 1045.3 3656.77 1043.46 3654.5 1043.46 3652.23 1043.46 3650.39 1045.3 3650.39 1047.57Z"/><path d="M3535.18 1208.04C3535.18 1205.77 3533.33 1203.93 3531.06 1203.93L3494.03 1203.93C3491.76 1203.93 3489.92 1205.77 3489.92 1208.04 3489.92 1210.31 3491.76 1212.16 3494.03 1212.16L3531.06 1212.16C3533.33 1212.16 3535.18 1210.31 3535.18 1208.04Z"/><path d="M3773.82 1208.04C3773.82 1210.31 3775.67 1212.16 3777.94 1212.16L3814.97 1212.16C3817.24 1212.16 3819.08 1210.31 3819.08 1208.04 3819.08 1205.77 3817.24 1203.93 3814.97 1203.93L3777.94 1203.93C3775.67 1203.93 3773.82 1205.77 3773.82 1208.04Z"/><path d="M3538.12 1091.66C3536.52 1093.27 3536.52 1095.88 3538.12 1097.48L3564.31 1123.67C3565.94 1125.25 3568.55 1125.2 3570.13 1123.57 3571.67 1121.97 3571.67 1119.44 3570.13 1117.85L3543.94 1091.66C3542.33 1090.06 3539.73 1090.06 3538.12 1091.66Z"/><path d="M3765.06 1324.42C3766.69 1326 3769.3 1325.95 3770.88 1324.32 3772.42 1322.72 3772.42 1320.2 3770.88 1318.6L3744.69 1292.42C3743.11 1290.78 3740.51 1290.74 3738.87 1292.31 3737.24 1293.89 3737.19 1296.5 3738.77 1298.13 3738.81 1298.17 3738.84 1298.2 3738.87 1298.23Z"/><path d="M3770.88 1091.66C3769.27 1090.06 3766.67 1090.06 3765.06 1091.66L3738.87 1117.85C3737.24 1119.43 3737.19 1122.03 3738.77 1123.67 3740.35 1125.3 3742.96 1125.35 3744.59 1123.77 3744.62 1123.74 3744.66 1123.7 3744.69 1123.67L3770.88 1097.48C3772.48 1095.88 3772.48 1093.27 3770.88 1091.66Z"/><path d="M3541.03 1325.62C3542.12 1325.62 3543.17 1325.19 3543.94 1324.42L3570.13 1298.23C3571.76 1296.65 3571.81 1294.05 3570.23 1292.42 3568.65 1290.78 3566.04 1290.74 3564.41 1292.31 3564.38 1292.35 3564.34 1292.38 3564.31 1292.42L3538.12 1318.6C3536.52 1320.21 3536.52 1322.81 3538.12 1324.42 3538.9 1325.19 3539.94 1325.62 3541.03 1325.62Z"/></g></g></g><path d="M2738.5 959C2738.5 933.871 2758.87 913.5 2784 913.5 2809.13 913.5 2829.5 933.871 2829.5 959 2829.5 984.129 2809.13 1004.5 2784 1004.5 2758.87 1004.5 2738.5 984.129 2738.5 959Z" stroke="#000000" stroke-width="4.58333" stroke-miterlimit="8" fill="#E7E6E6" fill-rule="evenodd"/><path d="M2897.5 1054C2897.5 1028.87 2917.65 1008.5 2942.5 1008.5 2967.35 1008.5 2987.5 1028.87 2987.5 1054 2987.5 1079.13 2967.35 1099.5 2942.5 1099.5 2917.65 1099.5 2897.5 1079.13 2897.5 1054Z" stroke="#000000" stroke-width="4.58333" stroke-miterlimit="8" fill="#E7E6E6" fill-rule="evenodd"/><path d="M3055.5 1160C3055.5 1134.87 3075.87 1114.5 3101 1114.5 3126.13 1114.5 3146.5 1134.87 3146.5 1160 3146.5 1185.13 3126.13 1205.5 3101 1205.5 3075.87 1205.5 3055.5 1185.13 3055.5 1160Z" stroke="#000000" stroke-width="4.58333" stroke-miterlimit="8" fill="#E7E6E6" fill-rule="evenodd"/><path d="M2738.5 1160C2738.5 1134.87 2758.87 1114.5 2784 1114.5 2809.13 1114.5 2829.5 1134.87 2829.5 1160 2829.5 1185.13 2809.13 1205.5 2784 1205.5 2758.87 1205.5 2738.5 1185.13 2738.5 1160Z" stroke="#000000" stroke-width="4.58333" stroke-miterlimit="8" fill="#E7E6E6" fill-rule="evenodd"/><path d="M2738.5 1551C2738.5 1525.87 2758.87 1505.5 2784 1505.5 2809.13 1505.5 2829.5 1525.87 2829.5 1551 2829.5 1576.13 2809.13 1596.5 2784 1596.5 2758.87 1596.5 2738.5 1576.13 2738.5 1551Z" stroke="#000000" stroke-width="4.58333" stroke-miterlimit="8" fill="#E7E6E6" fill-rule="evenodd"/><path d="M2897.5 1257C2897.5 1231.87 2917.65 1211.5 2942.5 1211.5 2967.35 1211.5 2987.5 1231.87 2987.5 1257 2987.5 1282.13 2967.35 1302.5 2942.5 1302.5 2917.65 1302.5 2897.5 1282.13 2897.5 1257Z" stroke="#000000" stroke-width="4.58333" stroke-miterlimit="8" fill="#E7E6E6" fill-rule="evenodd"/><path d="M2738.5 1362C2738.5 1336.87 2758.87 1316.5 2784 1316.5 2809.13 1316.5 2829.5 1336.87 2829.5 1362 2829.5 1387.13 2809.13 1407.5 2784 1407.5 2758.87 1407.5 2738.5 1387.13 2738.5 1362Z" stroke="#000000" stroke-width="4.58333" stroke-miterlimit="8" fill="#E7E6E6" fill-rule="evenodd"/><path d="M3214.5 1247C3214.5 1221.87 3234.87 1201.5 3260 1201.5 3285.13 1201.5 3305.5 1221.87 3305.5 1247 3305.5 1272.13 3285.13 1292.5 3260 1292.5 3234.87 1292.5 3214.5 1272.13 3214.5 1247Z" stroke="#000000" stroke-width="4.58333" stroke-miterlimit="8" fill="#E7E6E6" fill-rule="evenodd"/><path d="M3055.5 1362C3055.5 1336.87 3075.87 1316.5 3101 1316.5 3126.13 1316.5 3146.5 1336.87 3146.5 1362 3146.5 1387.13 3126.13 1407.5 3101 1407.5 3075.87 1407.5 3055.5 1387.13 3055.5 1362Z" stroke="#000000" stroke-width="4.58333" stroke-miterlimit="8" fill="#E7E6E6" fill-rule="evenodd"/><path d="M2897.5 1449C2897.5 1423.87 2917.65 1403.5 2942.5 1403.5 2967.35 1403.5 2987.5 1423.87 2987.5 1449 2987.5 1474.13 2967.35 1494.5 2942.5 1494.5 2917.65 1494.5 2897.5 1474.13 2897.5 1449Z" stroke="#000000" stroke-width="4.58333" stroke-miterlimit="8" fill="#E7E6E6" fill-rule="evenodd"/><path d="M2829.5 958.5 2897.14 1053.89" stroke="#000000" stroke-width="4.58333" stroke-miterlimit="8" fill="none" fill-rule="evenodd"/><path d="M3055.14 1160.05 2987.5 1054.5" stroke="#000000" stroke-width="4.58333" stroke-miterlimit="8" fill="none" fill-rule="evenodd"/><path d="M0 0 67.6388 97.5258" stroke="#000000" stroke-width="4.58333" stroke-miterlimit="8" fill="none" fill-rule="evenodd" transform="matrix(1 0 0 -1 2987.5 1257.03)"/><path d="M2987.5 1257.5 3055.14 1362.32" stroke="#000000" stroke-width="4.58333" stroke-miterlimit="8" fill="none" fill-rule="evenodd"/><path d="M3146.5 1159.5 3214.14 1247" stroke="#000000" stroke-width="4.58333" stroke-miterlimit="8" fill="none" fill-rule="evenodd"/><path d="M0 0 67.6388 114.843" stroke="#000000" stroke-width="4.58333" stroke-miterlimit="8" fill="none" fill-rule="evenodd" transform="matrix(-1 0 0 1 3214.14 1247.5)"/><path d="M0 0 67.6388 87.1183" stroke="#000000" stroke-width="4.58333" stroke-miterlimit="8" fill="none" fill-rule="evenodd" transform="matrix(1 0 0 -1 2987.5 1448.62)"/><path d="M0 0 80.9575 69.6869" stroke="#000000" stroke-width="4.58333" stroke-miterlimit="8" fill="none" fill-rule="evenodd" transform="matrix(1 0 0 -1 2829.5 1551.19)"/><path d="M0 0 67.6388 106.249" stroke="#000000" stroke-width="4.58333" stroke-miterlimit="8" fill="none" fill-rule="evenodd" transform="matrix(-1 0 0 1 2897.14 1054.5)"/><path d="M2897.14 1257.32 2829.5 1160.5" stroke="#000000" stroke-width="4.58333" stroke-miterlimit="8" fill="none" fill-rule="evenodd"/><path d="M0 0 67.6388 104.817" stroke="#000000" stroke-width="4.58333" stroke-miterlimit="8" fill="none" fill-rule="evenodd" transform="matrix(1 0 0 -1 2829.5 1362.32)"/><path d="M2829.5 1361.5 2897.14 1448.62" stroke="#000000" stroke-width="4.58333" stroke-miterlimit="8" fill="none" fill-rule="evenodd"/><path d="M2498.5 1063.21 2657.77 1063.21 2657.77 1067.79 2498.5 1067.79ZM2653.19 1051.75 2680.69 1065.5 2653.19 1079.25Z"/><path d="M2498.5 1209.21 2657.77 1209.21 2657.77 1213.79 2498.5 1213.79ZM2653.19 1197.75 2680.69 1211.5 2653.19 1225.25Z"/><path d="M2498.5 1331.21 2657.77 1331.21 2657.77 1335.79 2498.5 1335.79ZM2653.19 1319.75 2680.69 1333.5 2653.19 1347.25Z"/><path d="M2498.5 1464.21 2657.77 1464.21 2657.77 1468.79 2498.5 1468.79ZM2653.19 1452.75 2680.69 1466.5 2653.19 1480.25Z"/><path d="M1891.68 1128.58 2028.17 1128.58" stroke="#C00000" stroke-width="10.3125" stroke-linejoin="round" stroke-miterlimit="10" fill="none" fill-rule="evenodd"/><path d="M1891.68 1263.75 2028.17 1263.75" stroke="#C00000" stroke-width="10.3125" stroke-linejoin="round" stroke-miterlimit="10" fill="none" fill-rule="evenodd"/><path d="M1891.68 1398.92 2028.17 1398.92" stroke="#C00000" stroke-width="10.3125" stroke-linejoin="round" stroke-miterlimit="10" fill="none" fill-rule="evenodd"/><path d="M1896.84 988.246 1896.84 1539.25" stroke="#C00000" stroke-width="10.3125" stroke-linejoin="round" stroke-miterlimit="10" fill="none" fill-rule="evenodd"/><path d="M2023.02 988.246 2023.02 1539.25" stroke="#C00000" stroke-width="10.3125" stroke-linejoin="round" stroke-miterlimit="10" fill="none" fill-rule="evenodd"/><path d="M1891.68 993.402 2028.17 993.402" stroke="#C00000" stroke-width="10.3125" stroke-linejoin="round" stroke-miterlimit="10" fill="none" fill-rule="evenodd"/><path d="M1891.68 1534.1 2028.17 1534.1" stroke="#C00000" stroke-width="10.3125" stroke-linejoin="round" stroke-miterlimit="10" fill="none" fill-rule="evenodd"/><text font-family="Times New Roman,Times New Roman_MSFontService,sans-serif" font-weight="400" font-size="32" transform="matrix(1 0 0 1 1939.87 1073)">0.2<tspan font-size="37" x="-2.86438" y="136">0.9</tspan><tspan font-size="37" x="6.30225" y="271">...</tspan><tspan font-size="37" x="-2.86438" y="407">0.1</tspan></text><path d="M2115.34 1126.18 2251.83 1126.18" stroke="#00B050" stroke-width="10.3125" stroke-linejoin="round" stroke-miterlimit="10" fill="none" fill-rule="evenodd"/><path d="M2115.34 1262.15 2251.83 1262.15" stroke="#00B050" stroke-width="10.3125" stroke-linejoin="round" stroke-miterlimit="10" fill="none" fill-rule="evenodd"/><path d="M2115.34 1398.13 2251.83 1398.13" stroke="#00B050" stroke-width="10.3125" stroke-linejoin="round" stroke-miterlimit="10" fill="none" fill-rule="evenodd"/><path d="M2120.49 985.053 2120.49 1539.25" stroke="#00B050" stroke-width="10.3125" stroke-linejoin="round" stroke-miterlimit="10" fill="none" fill-rule="evenodd"/><path d="M2246.68 985.053 2246.68 1539.25" stroke="#00B050" stroke-width="10.3125" stroke-linejoin="round" stroke-miterlimit="10" fill="none" fill-rule="evenodd"/><path d="M2115.34 990.209 2251.83 990.209" stroke="#00B050" stroke-width="10.3125" stroke-linejoin="round" stroke-miterlimit="10" fill="none" fill-rule="evenodd"/><path d="M2115.34 1534.1 2251.83 1534.1" stroke="#00B050" stroke-width="10.3125" stroke-linejoin="round" stroke-miterlimit="10" fill="none" fill-rule="evenodd"/><text font-family="Times New Roman,Times New Roman_MSFontService,sans-serif" font-weight="400" font-size="32" transform="matrix(1 0 0 1 2163.53 1070)">0.7<tspan font-size="37" x="-2.8645" y="137">0.3</tspan><tspan font-size="37" x="6.30225" y="273">...</tspan><tspan font-size="37" x="-2.8645" y="409">0.5</tspan></text><path d="M2331.61 1126.18 2468.1 1126.18" stroke="#0070C0" stroke-width="10.3125" stroke-linejoin="round" stroke-miterlimit="10" fill="none" fill-rule="evenodd"/><path d="M2331.61 1262.15 2468.1 1262.15" stroke="#0070C0" stroke-width="10.3125" stroke-linejoin="round" stroke-miterlimit="10" fill="none" fill-rule="evenodd"/><path d="M2331.61 1398.13 2468.1 1398.13" stroke="#0070C0" stroke-width="10.3125" stroke-linejoin="round" stroke-miterlimit="10" fill="none" fill-rule="evenodd"/><path d="M2336.76 985.053 2336.76 1539.25" stroke="#0070C0" stroke-width="10.3125" stroke-linejoin="round" stroke-miterlimit="10" fill="none" fill-rule="evenodd"/><path d="M2462.94 985.053 2462.94 1539.25" stroke="#0070C0" stroke-width="10.3125" stroke-linejoin="round" stroke-miterlimit="10" fill="none" fill-rule="evenodd"/><path d="M2331.61 990.209 2468.1 990.209" stroke="#0070C0" stroke-width="10.3125" stroke-linejoin="round" stroke-miterlimit="10" fill="none" fill-rule="evenodd"/><path d="M2331.61 1534.1 2468.1 1534.1" stroke="#0070C0" stroke-width="10.3125" stroke-linejoin="round" stroke-miterlimit="10" fill="none" fill-rule="evenodd"/><text font-family="Times New Roman,Times New Roman_MSFontService,sans-serif" font-weight="400" font-size="32" transform="matrix(1 0 0 1 2379.8 1070)">0.6<tspan font-size="37" x="-2.86426" y="137">0.8</tspan><tspan font-size="37" x="6.30225" y="273">...</tspan><tspan font-size="37" x="-2.86426" y="409">0.2</tspan></text><path d="M3355 1249.84 3462.11 1249.84 3462.11 1260.16 3355 1260.16ZM3456.96 1239.53 3487.89 1255 3456.96 1270.47Z"/><path d="M1461.85 940.663C1450.51 931.874 1448.25 915.792 1456.81 904.743 1465.37 893.694 1481.51 891.861 1492.85 900.65 1504.2 909.438 1506.45 925.52 1497.89 936.57 1489.33 947.619 1473.2 949.452 1461.85 940.663Z" stroke="#000000" stroke-width="4.58333" stroke-miterlimit="8" fill="#00B050" fill-rule="evenodd"/><path d="M1511.5 831.5C1511.5 817.141 1523.14 805.5 1537.5 805.5 1551.86 805.5 1563.5 817.141 1563.5 831.5 1563.5 845.859 1551.86 857.5 1537.5 857.5 1523.14 857.5 1511.5 845.859 1511.5 831.5Z" stroke="#000000" stroke-width="4.58333" stroke-miterlimit="8" fill="#00B050" fill-rule="evenodd"/><path d="M1599.5 949.5C1599.5 935.141 1611.14 923.5 1625.5 923.5 1639.86 923.5 1651.5 935.141 1651.5 949.5 1651.5 963.859 1639.86 975.5 1625.5 975.5 1611.14 975.5 1599.5 963.859 1599.5 949.5Z" stroke="#000000" stroke-width="4.58333" stroke-miterlimit="8" fill="#00B050" fill-rule="evenodd"/><path d="M1281.5 916.5C1281.5 902.141 1293.14 890.5 1307.5 890.5 1321.86 890.5 1333.5 902.141 1333.5 916.5 1333.5 930.859 1321.86 942.5 1307.5 942.5 1293.14 942.5 1281.5 930.859 1281.5 916.5Z" stroke="#000000" stroke-width="4.58333" stroke-miterlimit="8" fill="#00B050" fill-rule="evenodd"/><path d="M1459.5 994.5C1459.5 980.14 1471.14 968.5 1485.5 968.5 1499.86 968.5 1511.5 980.14 1511.5 994.5 1511.5 1008.86 1499.86 1020.5 1485.5 1020.5 1471.14 1020.5 1459.5 1008.86 1459.5 994.5Z" stroke="#000000" stroke-width="4.58333" stroke-miterlimit="8" fill="#00B050" fill-rule="evenodd"/><path d="M1304.5 1032.5C1304.5 1018.14 1316.14 1006.5 1330.5 1006.5 1344.86 1006.5 1356.5 1018.14 1356.5 1032.5 1356.5 1046.86 1344.86 1058.5 1330.5 1058.5 1316.14 1058.5 1304.5 1046.86 1304.5 1032.5Z" stroke="#000000" stroke-width="4.58333" stroke-miterlimit="8" fill="#00B050" fill-rule="evenodd"/><path d="M1477.5 1097.5C1477.5 1083.14 1489.14 1071.5 1503.5 1071.5 1517.86 1071.5 1529.5 1083.14 1529.5 1097.5 1529.5 1111.86 1517.86 1123.5 1503.5 1123.5 1489.14 1123.5 1477.5 1111.86 1477.5 1097.5Z" stroke="#000000" stroke-width="4.58333" stroke-miterlimit="8" fill="#00B050" fill-rule="evenodd"/><path d="M1385.5 1067.5C1385.5 1053.14 1396.92 1041.5 1411 1041.5 1425.08 1041.5 1436.5 1053.14 1436.5 1067.5 1436.5 1081.86 1425.08 1093.5 1411 1093.5 1396.92 1093.5 1385.5 1081.86 1385.5 1067.5Z" stroke="#000000" stroke-width="4.58333" stroke-miterlimit="8" fill="#00B050" fill-rule="evenodd"/><path d="M0 0 25.3697 51.3431" stroke="#000000" stroke-width="4.58333" stroke-miterlimit="8" fill="none" fill-rule="evenodd" transform="matrix(1 0 0 -1 1493.5 900.843)"/><path d="M1607.44 931.487 1537.5 857.5" stroke="#000000" stroke-width="4.58333" stroke-miterlimit="8" fill="none" fill-rule="evenodd"/><path d="M0 0 88.3179 44.3919" stroke="#000000" stroke-width="4.58333" stroke-miterlimit="8" fill="none" fill-rule="evenodd" transform="matrix(1 0 0 -1 1511.5 993.892)"/><path d="M1485.5 1020.5 1504.21 1071.87" stroke="#000000" stroke-width="4.58333" stroke-miterlimit="8" fill="none" fill-rule="evenodd"/><path d="M0 0 126.871 259.524" stroke="#C00000" stroke-width="6.875" stroke-miterlimit="8" fill="none" fill-rule="evenodd" transform="matrix(1 0 0 -1 1358.5 1375.02)"/><path d="M1436.5 1067.5 1477.36 1097.15" stroke="#000000" stroke-width="4.58333" stroke-miterlimit="8" fill="none" fill-rule="evenodd"/><path d="M0 0 301.839 44.1364" stroke="#000000" stroke-width="4.58333" stroke-miterlimit="8" fill="none" fill-rule="evenodd" transform="matrix(1 0 0 -1 1083.5 1111.64)"/><path d="M0 0 177.391 85.3868" stroke="#000000" stroke-width="4.58333" stroke-miterlimit="8" fill="none" fill-rule="evenodd" transform="matrix(-1 0 0 1 1510.89 831.5)"/><path d="M1458.92 993.85 1333.5 916.5" stroke="#000000" stroke-width="4.58333" stroke-miterlimit="8" fill="none" fill-rule="evenodd"/><path d="M0 0 103.124 37.9695" stroke="#000000" stroke-width="4.58333" stroke-miterlimit="8" fill="none" fill-rule="evenodd" transform="matrix(1 0 0 -1 1356.5 1032.47)"/><path d="M1356.5 1032.5 1393.11 1049.84" stroke="#000000" stroke-width="4.58333" stroke-miterlimit="8" fill="none" fill-rule="evenodd"/><path d="M1391.78 1470.36C1405.94 1468.01 1419.27 1477.28 1421.56 1491.07 1423.85 1504.86 1414.23 1517.94 1400.08 1520.29 1385.92 1522.64 1372.59 1513.37 1370.3 1499.58 1368.01 1485.79 1377.63 1472.71 1391.78 1470.36Z" stroke="#000000" stroke-width="4.58333" stroke-miterlimit="8" fill="#0070C0" fill-rule="evenodd"/><path d="M1416.81 1570.21C1429.52 1563.55 1445.22 1568.45 1451.88 1581.16 1458.55 1593.87 1453.65 1609.58 1440.94 1616.24 1428.23 1622.9 1412.52 1618 1405.86 1605.29 1399.19 1592.58 1404.1 1576.88 1416.81 1570.21Z" stroke="#000000" stroke-width="4.58333" stroke-miterlimit="8" fill="#0070C0" fill-rule="evenodd"/><path d="M1293.5 1525.5C1293.5 1511.14 1305.14 1499.5 1319.5 1499.5 1333.86 1499.5 1345.5 1511.14 1345.5 1525.5 1345.5 1539.86 1333.86 1551.5 1319.5 1551.5 1305.14 1551.5 1293.5 1539.86 1293.5 1525.5Z" stroke="#000000" stroke-width="4.58333" stroke-miterlimit="8" fill="#0070C0" fill-rule="evenodd"/><path d="M1413.8 1726.33C1405.48 1738.02 1389.25 1740.75 1377.56 1732.43 1365.87 1724.1 1363.14 1707.88 1371.46 1696.19 1379.79 1684.5 1396.01 1681.77 1407.7 1690.09 1419.39 1698.41 1422.12 1714.64 1413.8 1726.33Z" stroke="#000000" stroke-width="4.58333" stroke-miterlimit="8" fill="#0070C0" fill-rule="evenodd"/><path d="M1332.18 1419.95C1319.74 1412.79 1315.45 1396.91 1322.61 1384.47 1329.77 1372.03 1345.65 1367.75 1358.09 1374.9 1370.53 1382.06 1374.81 1397.94 1367.66 1410.38 1360.5 1422.82 1344.62 1427.1 1332.18 1419.95Z" stroke="#000000" stroke-width="4.58333" stroke-miterlimit="8" fill="#0070C0" fill-rule="evenodd"/><path d="M1154.5 1601.5C1154.5 1587.14 1166.14 1575.5 1180.5 1575.5 1194.86 1575.5 1206.5 1587.14 1206.5 1601.5 1206.5 1615.86 1194.86 1627.5 1180.5 1627.5 1166.14 1627.5 1154.5 1615.86 1154.5 1601.5Z" stroke="#000000" stroke-width="4.58333" stroke-miterlimit="8" fill="#0070C0" fill-rule="evenodd"/><path d="M1308.24 1636.88C1300.36 1624.89 1303.7 1608.78 1315.69 1600.9 1327.68 1593.02 1343.79 1596.35 1351.67 1608.35 1359.55 1620.34 1356.22 1636.45 1344.23 1644.33 1332.23 1652.21 1316.12 1648.88 1308.24 1636.88Z" stroke="#000000" stroke-width="4.58333" stroke-miterlimit="8" fill="#0070C0" fill-rule="evenodd"/><path d="M1246.54 1712.06C1232.42 1709.54 1223.01 1696.05 1225.53 1681.92 1228.05 1667.79 1241.54 1658.38 1255.67 1660.9 1269.8 1663.42 1279.21 1676.92 1276.69 1691.05 1274.17 1705.17 1260.67 1714.58 1246.54 1712.06Z" stroke="#000000" stroke-width="4.58333" stroke-miterlimit="8" fill="#0070C0" fill-rule="evenodd"/><path d="M1400.5 1520.5 1417.23 1570.42" stroke="#000000" stroke-width="4.58333" stroke-miterlimit="8" fill="none" fill-rule="evenodd"/><path d="M0 0 52.5708 24.0181" stroke="#000000" stroke-width="4.58333" stroke-miterlimit="8" fill="none" fill-rule="evenodd" transform="matrix(1 0 0 -1 1256.5 1661.52)"/><path d="M1372.28 1696.64 1277.5 1691.5" stroke="#000000" stroke-width="4.58333" stroke-miterlimit="8" fill="none" fill-rule="evenodd"/><path d="M1416.97 1571.16 1345.5 1525.5" stroke="#000000" stroke-width="4.58333" stroke-miterlimit="8" fill="none" fill-rule="evenodd"/><path d="M0 0 12.8272 78.6172" stroke="#000000" stroke-width="4.58333" stroke-miterlimit="8" fill="none" fill-rule="evenodd" transform="matrix(-1 0 0 1 1332.33 1420.5)"/><path d="M0 0 126.642 181.027" stroke="#000000" stroke-width="4.58333" stroke-miterlimit="8" fill="none" fill-rule="evenodd" transform="matrix(1 0 0 -1 1206.5 1601.53)"/><path d="M1198.5 1619.5 1256.25 1661.05" stroke="#000000" stroke-width="4.58333" stroke-miterlimit="8" fill="none" fill-rule="evenodd"/><path d="M1038.5 1130.5C1038.5 1116.14 1050.14 1104.5 1064.5 1104.5 1078.86 1104.5 1090.5 1116.14 1090.5 1130.5 1090.5 1144.86 1078.86 1156.5 1064.5 1156.5 1050.14 1156.5 1038.5 1144.86 1038.5 1130.5Z" stroke="#000000" stroke-width="4.58333" stroke-miterlimit="8" fill="#FFC000" fill-rule="evenodd"/><path d="M1041.5 1282.5C1041.5 1268.14 1053.14 1256.5 1067.5 1256.5 1081.86 1256.5 1093.5 1268.14 1093.5 1282.5 1093.5 1296.86 1081.86 1308.5 1067.5 1308.5 1053.14 1308.5 1041.5 1296.86 1041.5 1282.5Z" stroke="#000000" stroke-width="4.58333" stroke-miterlimit="8" fill="#FFC000" fill-rule="evenodd"/><path d="M766.5 1241.5C766.5 1227.14 778.141 1215.5 792.5 1215.5 806.859 1215.5 818.5 1227.14 818.5 1241.5 818.5 1255.86 806.859 1267.5 792.5 1267.5 778.141 1267.5 766.5 1255.86 766.5 1241.5Z" stroke="#000000" stroke-width="4.58333" stroke-miterlimit="8" fill="#FFC000" fill-rule="evenodd"/><path d="M928.5 1267.5C928.5 1253.14 940.141 1241.5 954.5 1241.5 968.859 1241.5 980.5 1253.14 980.5 1267.5 980.5 1281.86 968.859 1293.5 954.5 1293.5 940.141 1293.5 928.5 1281.86 928.5 1267.5Z" stroke="#000000" stroke-width="4.58333" stroke-miterlimit="8" fill="#FFC000" fill-rule="evenodd"/><path d="M788.5 1356.5C788.5 1342.14 800.141 1330.5 814.5 1330.5 828.859 1330.5 840.5 1342.14 840.5 1356.5 840.5 1370.86 828.859 1382.5 814.5 1382.5 800.141 1382.5 788.5 1370.86 788.5 1356.5Z" stroke="#000000" stroke-width="4.58333" stroke-miterlimit="8" fill="#FFC000" fill-rule="evenodd"/><path d="M962.5 1421.5C962.5 1407.14 974.141 1395.5 988.5 1395.5 1002.86 1395.5 1014.5 1407.14 1014.5 1421.5 1014.5 1435.86 1002.86 1447.5 988.5 1447.5 974.141 1447.5 962.5 1435.86 962.5 1421.5Z" stroke="#000000" stroke-width="4.58333" stroke-miterlimit="8" fill="#FFC000" fill-rule="evenodd"/><path d="M1066.97 1257.07 1064.5 1156.5" stroke="#000000" stroke-width="4.58333" stroke-miterlimit="8" fill="none" fill-rule="evenodd"/><path d="M980.5 1267.5 1041.3 1283.32" stroke="#000000" stroke-width="4.58333" stroke-miterlimit="8" fill="none" fill-rule="evenodd"/><path d="M954.5 1293.5 969.967 1403.84" stroke="#000000" stroke-width="4.58333" stroke-miterlimit="8" fill="none" fill-rule="evenodd"/><path d="M840.5 1356.5 962.334 1421.86" stroke="#000000" stroke-width="4.58333" stroke-miterlimit="8" fill="none" fill-rule="evenodd"/><path d="M0 0 220.585 110.733" stroke="#000000" stroke-width="4.58333" stroke-miterlimit="8" fill="none" fill-rule="evenodd" transform="matrix(-1 0 0 1 1039.08 1130.5)"/><path d="M928.792 1267.48 818.5 1241.5" stroke="#000000" stroke-width="4.58333" stroke-miterlimit="8" fill="none" fill-rule="evenodd"/><path d="M0 0 95.6047 70.9615" stroke="#000000" stroke-width="4.58333" stroke-miterlimit="8" fill="none" fill-rule="evenodd" transform="matrix(1 0 0 -1 840.5 1356.46)"/><path d="M1161.45 1583.45 1006.5 1440.5" stroke="#000000" stroke-width="4.58333" stroke-miterlimit="8" fill="none" fill-rule="evenodd"/><path d="M0.0611397-4.58293 36.7245-4.09381 36.6023 5.07204-0.0611397 4.58293ZM64.2221-3.72697 100.886-3.23785 100.763 5.928 64.0998 5.43888ZM128.383-2.87101 165.046-2.3819 164.924 6.78395 128.261 6.29484ZM192.544-2.01506 229.207-1.52594 229.085 7.63991 192.422 7.15079ZM256.705-1.1591 293.368-0.669986 293.246 8.49586 256.583 8.00675ZM320.866-0.303148 357.529 0.185969 357.407 9.35182 320.744 8.8627ZM385.027 0.552808 407.136 0.847763 407.014 10.0136 384.905 9.71866ZM402.798-17.5451 429.99 5.73638 402.186 28.2842Z" fill="#C00000" transform="matrix(1 0 0 -1 1435.5 1262.24)"/><path d="M2189.08 840.5 2189.08 877.167 2179.92 877.167 2179.92 840.5ZM2189.08 904.667 2189.08 941.333 2179.92 941.333 2179.92 904.667ZM2207.42 942.318 2184.5 969.818 2161.58 942.319Z" fill="#00B050"/><path d="M4.58333-1.29114e-05 4.58344 36.6667-4.58323 36.6667-4.58333 1.29114e-05ZM4.58351 64.1667 4.58362 100.833-4.58305 100.833-4.58315 64.1667ZM22.917 100.611 0.000360892 128.111-22.9164 100.611Z" fill="#0070C0" transform="matrix(1 0 0 -1 2400.5 1684.61)"/><path d="M0 0 413.271 4.18924" stroke="#00B050" stroke-width="9.16667" stroke-miterlimit="8" stroke-dasharray="36.6667 27.5" fill="none" fill-rule="evenodd" transform="matrix(1 0 0 -1 1770.5 846.689)"/><path d="M1634.5 1685.5 2400.39 1685.5" stroke="#0070C0" stroke-width="9.16667" stroke-miterlimit="8" stroke-dasharray="36.6667 27.5" fill="none" fill-rule="evenodd"/><path d="M0 0 4.76234 255.04" stroke="#00B050" stroke-width="9.16667" stroke-miterlimit="8" stroke-dasharray="36.6667 27.5" fill="none" fill-rule="evenodd" transform="matrix(-1 0 0 1 1774.26 842.5)"/><path d="M1529.5 1097.5 1770.65 1097.5" stroke="#00B050" stroke-width="9.16667" stroke-miterlimit="8" stroke-dasharray="36.6667 27.5" fill="none" fill-rule="evenodd"/><path d="M0 0 4.74934 317.688" stroke="#0070C0" stroke-width="9.16667" stroke-miterlimit="8" stroke-dasharray="36.6667 27.5" fill="none" fill-rule="evenodd" transform="matrix(1 0 0 -1 1634.5 1689.19)"/><path d="M1370.5 1391.5 1644.26 1391.5" stroke="#0070C0" stroke-width="9.16667" stroke-miterlimit="8" stroke-dasharray="36.6667 27.5" fill="none" fill-rule="evenodd"/><text font-family="Times New Roman,Times New Roman_MSFontService,sans-serif" font-weight="400" font-size="83" transform="matrix(1 0 0 1 1097.06 723)">Knowledge Graph<tspan font-size="83" x="1037.76" y="0">Embedding</tspan><tspan font-size="83" x="2008.03" y="1">ML Task</tspan></text></g></svg>