<svg width="2476" height="1291" xmlns="http://www.w3.org/2000/svg" xmlns:xlink="http://www.w3.org/1999/xlink" xml:space="preserve" overflow="hidden"><defs><clipPath id="clip0"><rect x="1174" y="440" width="2476" height="1291"/></clipPath></defs><g clip-path="url(#clip0)" transform="translate(-1174 -440)"><rect x="1207.5" y="450.5" width="1978" height="1060" stroke="#000000" stroke-width="4.58333" stroke-miterlimit="8" fill="none"/><path d="M1207.5 980.5 3510.58 980.5" stroke="#000000" stroke-width="4.58333" stroke-miterlimit="8" fill="none" fill-rule="evenodd"/><path d="M2196.5 450.5 2200.57 1684.45" stroke="#000000" stroke-width="4.58333" stroke-miterlimit="8" fill="none" fill-rule="evenodd"/><path d="M1673.5 979.5C1673.5 825.965 1907.65 701.5 2196.5 701.5 2485.34 701.5 2719.5 825.965 2719.5 979.5 2719.5 1133.04 2485.34 1257.5 2196.5 1257.5 1907.65 1257.5 1673.5 1133.04 1673.5 979.5Z" stroke="#C00000" stroke-width="4.58333" stroke-miterlimit="8" fill="none" fill-rule="evenodd"/><text font-family="Times New Roman,Times New Roman_MSFontService,sans-serif" font-weight="400" font-size="110" transform="matrix(1 0 0 1 1240.13 579)">KG true<tspan font-size="110" x="1428.27" y="884">NEW </tspan><tspan font-size="110" x="1704.14" y="884">false</tspan><tspan font-size="110" x="-0.000366211" y="888">KG false</tspan><tspan font-size="110" x="1464.87" y="0">NEW </tspan><tspan font-size="110" x="1740.74" y="0">true</tspan><tspan fill="#C00000" font-size="92" x="1351.87" y="192">Predictions</tspan><tspan fill="#C00000" font-size="110" x="798.227" y="561">C</tspan><tspan fill="#C00000" font-size="110" x="1041.36" y="339">B</tspan><tspan fill="#C00000" font-size="110" x="798.771" y="338">A</tspan><tspan fill="#C00000" font-size="110" x="1041.1" y="561">D</tspan><tspan font-size="110" x="152.884" y="1054">present in KG</tspan><tspan font-size="110" x="1179.86" y="1059">new to KG</tspan><tspan font-size="110" x="1971.62" y="677">false</tspan><tspan font-size="110" x="1989.2" y="176">true</tspan></text></g></svg>