<svg width="382" height="317" xmlns="http://www.w3.org/2000/svg" xmlns:xlink="http://www.w3.org/1999/xlink" xml:space="preserve" overflow="hidden"><defs><clipPath id="clip0"><rect x="433" y="161" width="382" height="317"/></clipPath><clipPath id="clip1"><rect x="407" y="148" width="379" height="355"/></clipPath><clipPath id="clip2"><rect x="407" y="148" width="379" height="355"/></clipPath><clipPath id="clip3"><rect x="407" y="148" width="379" height="355"/></clipPath><clipPath id="clip4"><rect x="407" y="148" width="379" height="355"/></clipPath><clipPath id="clip5"><rect x="407" y="148" width="379" height="355"/></clipPath></defs><g clip-path="url(#clip0)" transform="translate(-433 -161)"><g clip-path="url(#clip1)"><path d="M424.897 213.363C424.896 213.363 424.894 213.363 424.893 213.363 424.891 213.363 424.89 213.363 424.888 213.363 424.886 213.389 424.884 213.415 424.882 213.441 424.879 213.467 424.877 213.493 424.875 213.519 424.878 213.493 424.882 213.467 424.886 213.441 424.89 213.415 424.894 213.389 424.897 213.363M424.897 169.774C422.175 151.188 415.995 133.276 406.677 116.966 397.359 100.656 385.068 86.2346 370.44 74.4505 355.812 62.6665 339.105 53.7265 321.185 48.0943 303.265 42.4621 284.448 40.2367 265.709 41.5335 246.97 42.8302 228.638 47.6263 211.665 55.673 194.692 63.7198 179.375 74.8757 166.51 88.5623 153.645 102.249 143.457 118.225 136.474 135.663 129.492 153.101 125.837 171.694 125.701 190.478 125.565 209.261 128.949 227.905 135.678 245.443 142.407 262.98 152.362 279.103 165.027 292.974 177.693 306.846 192.846 318.223 209.7 326.515 226.555 334.807 244.815 339.869 263.534 341.437 282.252 343.006 301.1 341.053 319.099 335.682 337.099 330.31 353.934 321.614 368.731 310.043 383.528 298.472 396.028 284.231 405.581 268.058 415.135 251.885 421.574 234.064 424.566 215.52 423.911 218.546 422.441 221.336 420.315 223.587 418.19 225.837 415.488 227.464 412.504 228.289 409.52 229.114 406.366 229.107 403.386 228.269 400.405 227.431 397.711 225.793 395.594 223.533 393.478 221.273 392.02 218.476 391.379 215.448 390.738 212.419 390.939 209.271 391.958 206.348 392.977 203.425 394.777 200.835 397.163 198.861 399.548 196.888 402.428 195.604 405.491 195.15 405.001 192.196 405.123 189.174 405.847 186.269 406.571 183.365 407.883 180.639 409.701 178.261 411.52 175.883 413.807 173.903 416.42 172.443 419.034 170.984 421.919 170.075 424.897 169.774" fill="#FF0000" fill-opacity="0.4" transform="matrix(1.00101 0 0 1 308.963 134.012)"/></g><g clip-path="url(#clip2)"><path d="M424.897 169.774C425.954 176.991 426.485 184.275 426.485 191.569 426.485 198.862 425.954 206.147 424.897 213.363 427.945 213.672 431.023 213.338 433.933 212.383 436.843 211.428 439.52 209.873 441.792 207.819 444.064 205.766 445.88 203.258 447.123 200.459 448.366 197.66 449.008 194.631 449.008 191.569 449.008 188.506 448.366 185.477 447.123 182.678 445.88 179.879 444.064 177.371 441.792 175.318 439.52 173.264 436.843 171.709 433.933 170.754 431.023 169.8 427.945 169.465 424.897 169.774" fill="#008000" fill-opacity="0.4" transform="matrix(1.00101 0 0 1 308.963 134.012)"/></g><g clip-path="url(#clip3)"><path d="M424.897 169.774C421.919 170.075 419.034 170.984 416.42 172.443 413.807 173.903 411.52 175.883 409.701 178.261 407.883 180.639 406.571 183.365 405.847 186.269 405.123 189.174 405.001 192.196 405.491 195.15 408.022 194.774 410.606 194.976 413.049 195.741 415.491 196.505 417.729 197.812 419.595 199.564 421.461 201.316 422.906 203.467 423.823 205.857 424.74 208.246 425.104 210.812 424.888 213.363 424.89 213.363 424.891 213.363 424.893 213.363 424.894 213.363 424.896 213.363 424.897 213.363 425.954 206.147 426.485 198.862 426.485 191.569 426.485 184.275 425.954 176.991 424.897 169.774" fill="#B25900" fill-opacity="0.4" transform="matrix(1.00101 0 0 1 308.963 134.012)"/></g><g clip-path="url(#clip4)"><path d="M424.888 213.363C420.105 212.877 415.613 210.829 412.108 207.539 408.603 204.248 406.277 199.893 405.491 195.15 402.428 195.604 399.548 196.888 397.163 198.861 394.777 200.835 392.977 203.425 391.958 206.348 390.939 209.271 390.738 212.419 391.379 215.448 392.02 218.476 393.478 221.273 395.594 223.533 397.711 225.793 400.405 227.431 403.386 228.269 406.366 229.107 409.52 229.114 412.504 228.289 415.488 227.464 418.19 225.837 420.315 223.587 422.441 221.336 423.911 218.546 424.566 215.52 424.619 215.187 424.672 214.853 424.723 214.52 424.775 214.187 424.825 213.853 424.875 213.519 424.877 213.493 424.879 213.467 424.882 213.441 424.884 213.415 424.886 213.389 424.888 213.363" fill="#B200B2" fill-opacity="0.4" transform="matrix(1.00101 0 0 1 308.963 134.012)"/></g><g clip-path="url(#clip5)"><path d="M405.491 195.15C406.277 199.893 408.603 204.248 412.108 207.539 415.613 210.829 420.105 212.877 424.888 213.363 425.104 210.812 424.74 208.246 423.823 205.857 422.906 203.467 421.461 201.316 419.595 199.564 417.729 197.812 415.491 196.505 413.049 195.741 410.606 194.976 408.022 194.774 405.491 195.15" fill="#663366" fill-opacity="0.4" transform="matrix(1.00101 0 0 1 308.963 134.012)"/></g><path d="M4.39219 5.37124C3.80324 5.37124 3.33624 5.16961 2.99118 4.76635 2.64751 4.36448 2.47567 3.81294 2.47567 3.11174 2.47567 2.4147 2.64751 1.86316 2.99118 1.45713 3.33624 1.05249 3.80324 0.850169 4.39219 0.850169 4.98114 0.850169 5.44745 1.05249 5.79112 1.45713 6.13479 1.86316 6.30663 2.4147 6.30663 3.11174 6.30663 3.81294 6.13479 4.36448 5.79112 4.76635 5.44745 5.16961 4.98114 5.37124 4.39219 5.37124ZM6.99674 9.48489 6.99674 8.28966C6.66693 8.44487 6.33435 8.56335 5.99899 8.64511 5.66363 8.72826 5.33105 8.76983 5.00124 8.76983 4.13513 8.76983 3.47343 8.47744 3.01612 7.89264 2.56021 7.30785 2.29968 6.42442 2.23455 5.24236 2.48953 5.61929 2.80964 5.90822 3.19489 6.10916 3.58152 6.31009 4.00626 6.41056 4.4691 6.41056 5.4433 6.41056 6.21309 6.1147 6.77848 5.52298 7.34388 4.93264 7.62657 4.1289 7.62657 3.11174 7.62657 2.11537 7.3321 1.31579 6.74315 0.712978 6.1542 0.111554 5.37054-0.189157 4.39219-0.189157 3.26972-0.189157 2.41193 0.240431 1.81882 1.09961 1.22571 1.96017 0.929157 3.20667 0.929157 4.8391 0.929157 6.37176 1.29292 7.59401 2.02045 8.50584 2.74798 9.41768 3.72425 9.8736 4.94927 9.8736 5.27908 9.8736 5.61167 9.84103 5.94702 9.7759 6.28238 9.71077 6.63229 9.61376 6.99674 9.48489Z" transform="matrix(1.00101 0 0 -1 559.19 338.516)"/><path d="M1.46129 0.201629 1.46129 1.39685C1.79111 1.24026 2.12438 1.12109 2.46112 1.03933 2.79925 0.957566 3.13114 0.916686 3.4568 0.916686 4.3229 0.916686 4.98391 1.2077 5.43983 1.78972 5.89714 2.37174 6.15835 3.25655 6.22348 4.44416 5.97266 4.07139 5.65393 3.78523 5.2673 3.58567 4.88206 3.38612 4.45594 3.28635 3.98893 3.28635 3.0189 3.28635 2.25118 3.57944 1.68579 4.16562 1.12039 4.75318 0.837697 5.55624 0.837697 6.57478 0.837697 7.56976 1.13217 8.36796 1.72112 8.96938 2.31008 9.57219 3.09373 9.8736 4.07208 9.8736 5.19455 9.8736 6.05096 9.44332 6.64129 8.58275 7.23302 7.72358 7.52888 6.47569 7.52888 4.8391 7.52888 3.3106 7.16581 2.09043 6.43966 1.1786 5.71491 0.26676 4.74002-0.189157 3.515-0.189157 3.18519-0.189157 2.85122-0.156592 2.51309-0.0914607 2.17635-0.0263296 1.82575 0.071367 1.46129 0.201629ZM4.07208 4.3132C4.66103 4.3132 5.12734 4.51414 5.47101 4.91601 5.81607 5.31927 5.9886 5.87219 5.9886 6.57478 5.9886 7.27182 5.81607 7.82266 5.47101 8.2273 5.12734 8.63195 4.66103 8.83427 4.07208 8.83427 3.48313 8.83427 3.01682 8.63195 2.67315 8.2273 2.32948 7.82266 2.15764 7.27182 2.15764 6.57478 2.15764 5.87219 2.32948 5.31927 2.67315 4.91601 3.01682 4.51414 3.48313 4.3132 4.07208 4.3132Z" transform="matrix(1.00101 0 0 -1 567.663 338.516)"/><path d="M5.39826 5.22989C6.02601 5.09547 6.51588 4.81554 6.86787 4.39011 7.22124 3.96607 7.39792 3.44225 7.39792 2.81865 7.39792 1.86247 7.0688 1.12178 6.41056 0.596573 5.75232 0.0727528 4.81693-0.189157 3.60438-0.189157 3.19835-0.189157 2.77985-0.14897 2.34888-0.0685955 1.9179 0.011779 1.47307 0.132341 1.01438 0.29309L1.01438 1.55899C1.37745 1.34697 1.77517 1.18691 2.20753 1.07882 2.64127 0.97073 3.09442 0.916686 3.56697 0.916686 4.38873 0.916686 5.01509 1.07882 5.44607 1.40309 5.87704 1.72736 6.09253 2.19921 6.09253 2.81865 6.09253 3.39097 5.89229 3.83788 5.4918 4.15938 5.09131 4.48227 4.53423 4.64371 3.82056 4.64371L2.68978 4.64371 2.68978 5.72253 3.87253 5.72253C4.51691 5.72253 5.01024 5.85141 5.35253 6.10916 5.69481 6.36691 5.86596 6.7383 5.86596 7.22332 5.86596 7.72081 5.68927 8.10258 5.3359 8.36865 4.98391 8.63611 4.4788 8.76983 3.82056 8.76983 3.46026 8.76983 3.07433 8.73034 2.66275 8.65135 2.25118 8.57375 1.79873 8.45319 1.30539 8.28966L1.30539 9.45787C1.80427 9.59644 2.27127 9.70038 2.7064 9.76966 3.14154 9.83895 3.55172 9.8736 3.93697 9.8736 4.93333 9.8736 5.72114 9.64702 6.30039 9.19388 6.88103 8.74212 7.17135 8.13099 7.17135 7.36051 7.17135 6.82283 7.01753 6.36899 6.70989 5.99899 6.40225 5.62899 5.96504 5.37262 5.39826 5.22989Z" transform="matrix(1.00101 0 0 -1 576.135 338.516)"/><path d="M4.22798 4.60629C3.60438 4.60629 3.11382 4.43931 2.75629 4.10534 2.40015 3.77137 2.22208 3.31268 2.22208 2.72927 2.22208 2.14448 2.40015 1.68509 2.75629 1.35112 3.11382 1.01715 3.60438 0.850169 4.22798 0.850169 4.85157 0.850169 5.34283 1.01785 5.70174 1.3532 6.06204 1.68994 6.24219 2.14863 6.24219 2.72927 6.24219 3.31268 6.06343 3.77137 5.7059 4.10534 5.34976 4.43931 4.85712 4.60629 4.22798 4.60629ZM2.91635 5.16337C2.35373 5.30195 1.91513 5.56386 1.60056 5.9491 1.28738 6.33573 1.13079 6.8062 1.13079 7.36051 1.13079 8.13515 1.40655 8.74766 1.95809 9.19803 2.51101 9.64841 3.26764 9.8736 4.22798 9.8736 5.19386 9.8736 5.95187 9.64841 6.50202 9.19803 7.05217 8.74766 7.32725 8.13515 7.32725 7.36051 7.32725 6.8062 7.16996 6.33573 6.85539 5.9491 6.54221 5.56386 6.10639 5.30195 5.54792 5.16337 6.17983 5.01648 6.67178 4.72824 7.02376 4.29865 7.37714 3.87045 7.55382 3.34732 7.55382 2.72927 7.55382 1.78833 7.26697 1.06635 6.69326 0.563315 6.11955 0.0616667 5.29779-0.189157 4.22798-0.189157 3.15955-0.189157 2.33779 0.0616667 1.7627 0.563315 1.18899 1.06635 0.902135 1.78833 0.902135 2.72927 0.902135 3.34732 1.07951 3.87045 1.43427 4.29865 1.79041 4.72824 2.28444 5.01648 2.91635 5.16337ZM2.43618 7.23579C2.43618 6.73414 2.59277 6.34266 2.90596 6.06135 3.22052 5.78004 3.6612 5.63938 4.22798 5.63938 4.79199 5.63938 5.23266 5.78004 5.55 6.06135 5.86873 6.34266 6.02809 6.73414 6.02809 7.23579 6.02809 7.73882 5.86873 8.13099 5.55 8.4123 5.23266 8.69362 4.79199 8.83427 4.22798 8.83427 3.6612 8.83427 3.22052 8.69362 2.90596 8.4123 2.59277 8.13099 2.43618 7.73882 2.43618 7.23579Z" transform="matrix(1.00101 0 0 -1 742.914 329.251)"/><path d="M1.43635 9.69899 6.58725 9.69899 6.58725 8.59315 2.63781 8.59315 2.63781 6.21725C2.82766 6.28238 3.01751 6.33088 3.20736 6.36275 3.3986 6.39463 3.58983 6.41056 3.78107 6.41056 4.86335 6.41056 5.72045 6.11401 6.35236 5.5209 6.98566 4.92779 7.3023 4.12474 7.3023 3.11174 7.3023 2.06826 6.97734 1.25689 6.32742 0.67764 5.67749 0.0997753 4.7615-0.189157 3.57944-0.189157 3.17202-0.189157 2.75699-0.154513 2.33433-0.0852247 1.91305-0.0159363 1.47723 0.0879963 1.02685 0.226573L1.02685 1.54652C1.41625 1.33449 1.81882 1.17652 2.23455 1.07258 2.65028 0.968652 3.08957 0.916686 3.55242 0.916686 4.30212 0.916686 4.89523 1.11346 5.33174 1.50702 5.76965 1.90058 5.9886 2.43549 5.9886 3.11174 5.9886 3.78661 5.76965 4.32082 5.33174 4.71438 4.89523 5.10933 4.30212 5.3068 3.55242 5.3068 3.20182 5.3068 2.85191 5.268 2.5027 5.19039 2.15487 5.11279 1.79942 4.99154 1.43635 4.82663L1.43635 9.69899Z" transform="matrix(1.00101 0 0 -1 720.941 327.286)"/><path d="M1.09129 9.69899 7.32725 9.69899 7.32725 9.13983 3.80601 0 2.43618 0 5.74955 8.59315 1.09129 8.59315 1.09129 9.69899Z" transform="matrix(1.00101 0 0 -1 704.635 357.502)"/><path d="M2.55258 1.10376 7.13185 1.10376 7.13185 0 0.974888 0 0.974888 1.10376C1.47238 1.61927 2.15071 2.31077 3.00989 3.17826 3.87045 4.04714 4.4109 4.60768 4.63124 4.85989 5.05112 5.33105 5.34421 5.73015 5.51051 6.05719 5.67818 6.38423 5.76202 6.70573 5.76202 7.02169 5.76202 7.53719 5.58118 7.95708 5.21949 8.28135 4.85781 8.607 4.38665 8.76983 3.80601 8.76983 3.39444 8.76983 2.96 8.69847 2.5027 8.55573 2.04678 8.413 1.55899 8.19612 1.03933 7.90511L1.03933 9.23129C1.5673 9.44332 2.06064 9.60337 2.51933 9.71146 2.9794 9.81955 3.39998 9.8736 3.78107 9.8736 4.78575 9.8736 5.58672 9.62208 6.18399 9.11905 6.78126 8.6174 7.07989 7.94669 7.07989 7.10691 7.07989 6.70781 7.00506 6.32949 6.85539 5.97197 6.70712 5.61582 6.43551 5.19524 6.04056 4.71023 5.93247 4.58412 5.58811 4.22105 5.00747 3.62101 4.42822 3.02097 3.60993 2.18189 2.55258 1.10376Z" transform="matrix(1.00101 0 0 -1 720.996 341.234)"/><path d="M-0.0473933 11.6388 9.79793 11.6388 9.79793 10.3118 5.66724 10.3118 5.66724 0 4.0858 0 4.0858 10.3118-0.0473933 10.3118-0.0473933 11.6388Z" transform="matrix(1.00101 0 0 -1 457.744 175.186)"/><path d="M6.56272 7.39086C6.40142 7.48398 6.22598 7.55216 6.03641 7.59539 5.84683 7.64029 5.63814 7.66274 5.41032 7.66274 4.59881 7.66274 3.97605 7.39917 3.54202 6.87202 3.108 6.34488 2.89099 5.58742 2.89099 4.59964L2.89099 0 1.44924 0 1.44924 8.73034 2.89099 8.73034 2.89099 7.37339C3.19364 7.90387 3.58609 8.29715 4.06834 8.55324 4.55225 8.81099 5.14009 8.93987 5.83187 8.93987 5.92998 8.93987 6.0389 8.93322 6.15863 8.91991 6.27836 8.90827 6.41056 8.88915 6.55524 8.86254L6.56272 7.39086Z" transform="matrix(1.00101 0 0 -1 465.149 175.186)"/><path d="M5.47267 4.38762C4.31362 4.38762 3.51043 4.25542 3.0631 3.99101 2.61578 3.72661 2.39211 3.27429 2.39211 2.63407 2.39211 2.12521 2.56007 1.72112 2.89598 1.4218 3.23189 1.12414 3.68753 0.975304 4.2629 0.975304 5.05944 0.975304 5.698 1.25717 6.17859 1.8209 6.65917 2.38463 6.89946 3.13378 6.89946 4.06834L6.89946 4.38762 5.47267 4.38762ZM8.33373 4.98128 8.33373 0 6.89946 0 6.89946 1.32452C6.57187 0.795708 6.16362 0.404921 5.67472 0.152157 5.18582-0.100607 4.588-0.226989 3.88126-0.226989 2.98827-0.226989 2.27737 0.0241124 1.74856 0.526315 1.22142 1.02852 0.957843 1.70034 0.957843 2.54178 0.957843 3.5229 1.28627 4.2629 1.94312 4.76178 2.60164 5.26065 3.58276 5.51009 4.8865 5.51009L6.89946 5.51009 6.89946 5.65227C6.89946 6.31245 6.68245 6.82297 6.24843 7.18382 5.81441 7.54468 5.20495 7.7251 4.42005 7.7251 3.92117 7.7251 3.43476 7.66524 2.96083 7.54551 2.48856 7.42578 2.03458 7.24618 1.5989 7.00672L1.5989 8.33373C2.12272 8.53661 2.63157 8.68793 3.12546 8.78771 3.61935 8.88915 4.09993 8.93987 4.56721 8.93987 5.83103 8.93987 6.77474 8.61227 7.39834 7.95708 8.02193 7.30355 8.33373 6.31162 8.33373 4.98128Z" transform="matrix(1.00101 0 0 -1 471.719 175.186)"/><path d="M8.76277 5.27063 8.76277 0 7.3285 0 7.3285 5.22324C7.3285 6.04971 7.16719 6.66748 6.84459 7.07656 6.52198 7.4873 6.0389 7.69268 5.39535 7.69268 4.62043 7.69268 4.0093 7.44573 3.56198 6.95184 3.11465 6.45962 2.89099 5.78697 2.89099 4.93389L2.89099 0 1.44924 0 1.44924 8.73034 2.89099 8.73034 2.89099 7.37339C3.23521 7.89888 3.6393 8.29133 4.10326 8.55074 4.56888 8.81016 5.106 8.93987 5.71463 8.93987 6.71737 8.93987 7.47566 8.62973 7.98951 8.00946 8.50501 7.38919 8.76277 6.47625 8.76277 5.27063Z" transform="matrix(1.00101 0 0 -1 481.511 175.186)"/><path d="M7.06908 8.47342 7.06908 7.11647C6.66499 7.32434 6.24427 7.47982 5.80692 7.58292 5.37124 7.68769 4.91892 7.74007 4.44998 7.74007 3.73825 7.74007 3.20445 7.63115 2.84858 7.4133 2.49272 7.19546 2.31479 6.86787 2.31479 6.43052 2.31479 6.09793 2.442 5.83685 2.69643 5.64728 2.95085 5.45771 3.46303 5.27728 4.23297 5.106L4.72436 4.99625C5.74207 4.77841 6.46544 4.47077 6.89447 4.07333 7.32351 3.67589 7.53802 3.1213 7.53802 2.40957 7.53802 1.59807 7.21708 0.955348 6.57519 0.481416 5.9333 0.00914607 5.05112-0.226989 3.92865-0.226989 3.46137-0.226989 2.97414-0.181258 2.46694-0.0897978 1.95975 0.00166292 1.42596 0.138022 0.865551 0.319281L0.865551 1.80094C1.39602 1.5249 1.91818 1.31787 2.43202 1.17984 2.94587 1.04348 3.45555 0.975304 3.96108 0.975304 4.63623 0.975304 5.15506 1.09088 5.51757 1.32202 5.88175 1.55317 6.06384 1.8791 6.06384 2.29982 6.06384 2.68894 5.93247 2.98744 5.66973 3.1953 5.40865 3.40317 4.83328 3.60355 3.94362 3.79645L3.44474 3.91369C2.55674 4.09993 1.91485 4.38679 1.51908 4.77425 1.12497 5.16171 0.92791 5.69301 0.92791 6.36816 0.92791 7.18964 1.21892 7.82321 1.80094 8.26888 2.38297 8.7162 3.20944 8.93987 4.28036 8.93987 4.80917 8.93987 5.30721 8.90079 5.7745 8.82263 6.24344 8.74614 6.67497 8.62973 7.06908 8.47342Z" transform="matrix(1.00101 0 0 -1 491.639 175.186)"/><path d="M1.56647 11.6388 8.9249 11.6388 8.9249 10.3118 3.14043 10.3118 3.14043 6.86703 8.68295 6.86703 8.68295 5.54252 3.14043 5.54252 3.14043 1.32452 9.06459 1.32452 9.06459 0 1.56647 0 1.56647 11.6388Z" transform="matrix(1.00101 0 0 -1 499.965 175.186)"/><path d="M3.14043 10.3442 3.14043 1.29458 5.04364 1.29458C6.65002 1.29458 7.82571 1.65793 8.5707 2.38463 9.31569 3.11299 9.68818 4.26207 9.68818 5.83187 9.68818 7.39002 9.31569 8.53162 8.5707 9.25665 7.82571 9.98169 6.65002 10.3442 5.04364 10.3442L3.14043 10.3442ZM1.56647 11.6388 4.80169 11.6388C7.05661 11.6388 8.71122 11.1698 9.76551 10.232 10.8215 9.29407 11.3494 7.82737 11.3494 5.83187 11.3494 3.82472 10.819 2.35054 9.75802 1.40933 8.69874 0.469775 7.04663 0 4.80169 0L1.56647 0 1.56647 11.6388Z" transform="matrix(1.00101 0 0 -1 747.459 303.674)"/><path d="M1.50411 8.73034 2.93838 8.73034 2.93838 0 1.50411 0 1.50411 8.73034ZM1.50411 12.1302 2.93838 12.1302 2.93838 10.3118 1.50411 10.3118 1.50411 12.1302Z" transform="matrix(1.00101 0 0 -1 759.764 303.674)"/><path d="M7.06908 8.47342 7.06908 7.11647C6.66499 7.32434 6.24427 7.47982 5.80692 7.58292 5.37124 7.68769 4.91892 7.74007 4.44998 7.74007 3.73825 7.74007 3.20445 7.63115 2.84858 7.4133 2.49272 7.19546 2.31479 6.86787 2.31479 6.43052 2.31479 6.09793 2.442 5.83685 2.69643 5.64728 2.95085 5.45771 3.46303 5.27728 4.23297 5.106L4.72436 4.99625C5.74207 4.77841 6.46544 4.47077 6.89447 4.07333 7.32351 3.67589 7.53802 3.1213 7.53802 2.40957 7.53802 1.59807 7.21708 0.955348 6.57519 0.481416 5.9333 0.00914607 5.05112-0.226989 3.92865-0.226989 3.46137-0.226989 2.97414-0.181258 2.46694-0.0897978 1.95975 0.00166292 1.42596 0.138022 0.865551 0.319281L0.865551 1.80094C1.39602 1.5249 1.91818 1.31787 2.43202 1.17984 2.94587 1.04348 3.45555 0.975304 3.96108 0.975304 4.63623 0.975304 5.15506 1.09088 5.51757 1.32202 5.88175 1.55317 6.06384 1.8791 6.06384 2.29982 6.06384 2.68894 5.93247 2.98744 5.66973 3.1953 5.40865 3.40317 4.83328 3.60355 3.94362 3.79645L3.44474 3.91369C2.55674 4.09993 1.91485 4.38679 1.51908 4.77425 1.12497 5.16171 0.92791 5.69301 0.92791 6.36816 0.92791 7.18964 1.21892 7.82321 1.80094 8.26888 2.38297 8.7162 3.20944 8.93987 4.28036 8.93987 4.80917 8.93987 5.30721 8.90079 5.7745 8.82263 6.24344 8.74614 6.67497 8.62973 7.06908 8.47342Z" transform="matrix(1.00101 0 0 -1 764.204 303.674)"/><path d="M2.92342 11.2098 2.92342 8.73034 5.87677 8.73034 5.87677 7.61535 2.92342 7.61535 2.92342 2.87602C2.92342 2.16429 3.0207 1.70699 3.21526 1.50411 3.40982 1.30124 3.80643 1.1998 4.40508 1.1998L5.87677 1.1998 5.87677 0 4.40508 0C3.29757 0 2.53346 0.206202 2.11274 0.618607 1.69202 1.03267 1.48166 1.78515 1.48166 2.87602L1.48166 7.61535 0.429034 7.61535 0.429034 8.73034 1.48166 8.73034 1.48166 11.2098 2.92342 11.2098Z" transform="matrix(1.00101 0 0 -1 772.529 303.674)"/><path d="M1.56647 11.6388 3.91369 11.6388 6.882 3.71912 9.86778 11.6388 12.215 11.6388 12.215 0 10.6785 0 10.6785 10.2195 7.67771 2.23746 6.09627 2.23746 3.09553 10.2195 3.09553 0 1.56647 0 1.56647 11.6388Z" transform="matrix(1.00101 0 0 -1 778.795 303.674)"/><path d="M1.35694 3.44474 1.35694 8.73034 2.79121 8.73034 2.79121 3.49962C2.79121 2.67315 2.95169 2.05288 3.27263 1.63881 3.59524 1.2264 4.07915 1.0202 4.72436 1.0202 5.49762 1.0202 6.10874 1.26715 6.55773 1.76103 7.00838 2.25492 7.23371 2.92841 7.23371 3.78148L7.23371 8.73034 8.66798 8.73034 8.66798 0 7.23371 0 7.23371 1.34198C6.88616 0.811506 6.48207 0.417393 6.02144 0.15964 5.56247-0.0981124 5.02868-0.226989 4.42005-0.226989 3.4173-0.226989 2.65569 0.084809 2.13519 0.708405 1.61636 1.332 1.35694 2.24411 1.35694 3.44474ZM4.96632 8.93987 4.96632 8.93987Z" transform="matrix(1.00101 0 0 -1 792.583 303.674)"/><path d="M1.50411 12.1302 2.93838 12.1302 2.93838 0 1.50411 0 1.50411 12.1302Z" transform="matrix(1.00101 0 0 -1 802.711 303.674)"/><path d="M2.92342 11.2098 2.92342 8.73034 5.87677 8.73034 5.87677 7.61535 2.92342 7.61535 2.92342 2.87602C2.92342 2.16429 3.0207 1.70699 3.21526 1.50411 3.40982 1.30124 3.80643 1.1998 4.40508 1.1998L5.87677 1.1998 5.87677 0 4.40508 0C3.29757 0 2.53346 0.206202 2.11274 0.618607 1.69202 1.03267 1.48166 1.78515 1.48166 2.87602L1.48166 7.61535 0.429034 7.61535 0.429034 8.73034 1.48166 8.73034 1.48166 11.2098 2.92342 11.2098Z" transform="matrix(1.00101 0 0 -1 807.15 303.674)"/><path d="M10.2818 10.7408 10.2818 9.08205C9.75137 9.57593 9.18598 9.94427 8.58566 10.1871 7.98535 10.4315 7.34762 10.5537 6.67247 10.5537 5.34214 10.5537 4.3236 10.1471 3.61685 9.33398 2.91011 8.52081 2.55674 7.34513 2.55674 5.80692 2.55674 4.27371 2.91011 3.10052 3.61685 2.28735 4.3236 1.47418 5.34214 1.0676 6.67247 1.0676 7.34762 1.0676 7.98535 1.18982 8.58566 1.43427 9.18598 1.67872 9.75137 2.04789 10.2818 2.54178L10.2818 0.895483C9.73142 0.521326 9.14773 0.240292 8.53079 0.052382 7.91551-0.133865 7.2653-0.226989 6.58018-0.226989 4.81748-0.226989 3.42894 0.311798 2.41456 1.38937 1.40184 2.46861 0.895483 3.94112 0.895483 5.80692 0.895483 7.67771 1.40184 9.15189 2.41456 10.2295 3.42894 11.3087 4.81748 11.8483 6.58018 11.8483 7.27528 11.8483 7.93047 11.756 8.54575 11.5714 9.1627 11.3869 9.74139 11.11 10.2818 10.7408Z" transform="matrix(1.00101 0 0 -1 682.033 376.742)"/><path d="M4.8865 7.7251C4.11823 7.7251 3.51043 7.42495 3.0631 6.82463 2.61578 6.22432 2.39211 5.402 2.39211 4.35769 2.39211 3.31337 2.61411 2.49106 3.05811 1.89074 3.50378 1.29043 4.11324 0.99027 4.8865 0.99027 5.65144 0.99027 6.25674 1.29126 6.70241 1.89324 7.14973 2.49688 7.37339 3.31836 7.37339 4.35769 7.37339 5.39202 7.14973 6.21184 6.70241 6.81715 6.25674 7.42245 5.65144 7.7251 4.8865 7.7251ZM4.8865 8.93987C6.13369 8.93987 7.11315 8.53411 7.82488 7.72261 8.53827 6.91277 8.89497 5.79112 8.89497 4.35769 8.89497 2.92924 8.53827 1.8076 7.82488 0.992764 7.11315 0.179596 6.13369-0.226989 4.8865-0.226989 3.63432-0.226989 2.65319 0.179596 1.94312 0.992764 1.23472 1.8076 0.880517 2.92924 0.880517 4.35769 0.880517 5.79112 1.23472 6.91277 1.94312 7.72261 2.65319 8.53411 3.63432 8.93987 4.8865 8.93987Z" transform="matrix(1.00101 0 0 -1 693.191 376.742)"/><path d="M8.3013 7.05411C8.6605 7.69933 9.08953 8.17492 9.58841 8.4809 10.0873 8.78688 10.6743 8.93987 11.3494 8.93987 12.2591 8.93987 12.9608 8.62142 13.4547 7.98452 13.9486 7.34928 14.1955 6.44465 14.1955 5.27063L14.1955 0 12.7538 0 12.7538 5.22324C12.7538 6.05969 12.6049 6.67996 12.3073 7.08405 12.0113 7.4898 11.5598 7.69268 10.9528 7.69268 10.2095 7.69268 9.62166 7.44573 9.18931 6.95184 8.75861 6.45962 8.54326 5.78697 8.54326 4.93389L8.54326 0 7.10151 0 7.10151 5.22324C7.10151 6.06467 6.95351 6.68661 6.65751 7.08904 6.36151 7.49146 5.9042 7.69268 5.2856 7.69268 4.55225 7.69268 3.96939 7.4449 3.53703 6.94935 3.10634 6.4538 2.89099 5.78198 2.89099 4.93389L2.89099 0 1.44924 0 1.44924 8.73034 2.89099 8.73034 2.89099 7.37339C3.21859 7.90886 3.61103 8.3038 4.06834 8.55823 4.52564 8.81265 5.06858 8.93987 5.69717 8.93987 6.33241 8.93987 6.87202 8.77856 7.31602 8.45596 7.76002 8.13501 8.08845 7.66773 8.3013 7.05411Z" transform="matrix(1.00101 0 0 -1 702.968 376.742)"/><path d="M2.89099 1.30955 2.89099-3.32002 1.44924-3.32002 1.44924 8.73034 2.89099 8.73034 2.89099 7.40582C3.19364 7.92465 3.57445 8.30962 4.03342 8.56072 4.49405 8.81348 5.04364 8.93987 5.6822 8.93987 6.74315 8.93987 7.60454 8.51915 8.26638 7.67771 8.92989 6.83627 9.26164 5.7296 9.26164 4.35769 9.26164 2.98578 8.92989 1.87827 8.26638 1.03517 7.60454 0.19373 6.74315-0.226989 5.6822-0.226989 5.04364-0.226989 4.49405-0.100607 4.03342 0.152157 3.57445 0.404921 3.19364 0.790719 2.89099 1.30955ZM7.7725 4.35769C7.7725 5.41198 7.55548 6.23928 7.12146 6.8396 6.68744 7.43991 6.09128 7.74007 5.33299 7.74007 4.57303 7.74007 3.97605 7.43991 3.54202 6.8396 3.108 6.23928 2.89099 5.41198 2.89099 4.35769 2.89099 3.30339 3.108 2.47609 3.54202 1.87578 3.97605 1.27546 4.57303 0.975304 5.33299 0.975304 6.09128 0.975304 6.68744 1.27546 7.12146 1.87578 7.55548 2.47609 7.7725 3.30339 7.7725 4.35769Z" transform="matrix(1.00101 0 0 -1 718.534 376.742)"/><path d="M1.50411 12.1302 2.93838 12.1302 2.93838 0 1.50411 0 1.50411 12.1302Z" transform="matrix(1.00101 0 0 -1 728.678 376.742)"/><path d="M1.56647 11.6388 8.9249 11.6388 8.9249 10.3118 3.14043 10.3118 3.14043 6.86703 8.68295 6.86703 8.68295 5.54252 3.14043 5.54252 3.14043 1.32452 9.06459 1.32452 9.06459 0 1.56647 0 1.56647 11.6388Z" transform="matrix(1.00101 0 0 -1 733.118 376.742)"/><path d="M8.76277 8.73034 5.60488 4.48241 8.9249 0 7.23371 0 4.69193 3.42978 2.15265 0 0.458966 0 3.85133 4.56721 0.748315 8.73034 2.43951 8.73034 4.75429 5.61984 7.06908 8.73034 8.76277 8.73034Z" transform="matrix(1.00101 0 0 -1 743.214 376.742)"/></g></svg>