<svg width="352" height="316" xmlns="http://www.w3.org/2000/svg" xmlns:xlink="http://www.w3.org/1999/xlink" xml:space="preserve" overflow="hidden"><defs><clipPath id="clip0"><rect x="485" y="196" width="352" height="316"/></clipPath><clipPath id="clip1"><rect x="459" y="182" width="362" height="356"/></clipPath><clipPath id="clip2"><rect x="459" y="182" width="362" height="356"/></clipPath><clipPath id="clip3"><rect x="459" y="182" width="362" height="356"/></clipPath><clipPath id="clip4"><rect x="459" y="182" width="362" height="356"/></clipPath><clipPath id="clip5"><rect x="459" y="182" width="362" height="356"/></clipPath></defs><g clip-path="url(#clip0)" transform="translate(-485 -196)"><g clip-path="url(#clip1)"><path d="M433.237 218.16C432.512 219.187 431.745 220.183 430.937 221.146 430.129 222.109 429.282 223.038 428.398 223.931 428.952 226.487 429.186 229.101 429.093 231.715 429.001 234.328 428.583 236.92 427.85 239.43 429.005 235.956 430.032 232.442 430.931 228.893 431.83 225.345 432.599 221.765 433.237 218.16M433.237 165.609C430.071 147.726 423.699 130.561 414.429 114.944 405.159 99.3266 393.142 85.5124 378.959 74.1688 364.776 62.8251 348.659 54.1376 331.386 48.5257 314.113 42.9139 295.968 40.4697 277.826 41.3111 259.684 42.1524 241.842 46.2657 225.163 53.4521 208.484 60.6386 193.24 70.7806 180.168 83.3883 167.096 95.996 156.409 110.863 148.624 127.271 140.839 143.68 136.083 161.361 134.586 179.46 133.089 197.56 134.876 215.782 139.859 233.246 144.842 250.711 152.941 267.132 163.765 281.716 174.588 296.3 187.958 308.808 203.23 318.637 218.502 328.466 235.425 335.455 253.182 339.266 270.94 343.076 289.24 343.646 307.2 340.948 325.16 338.251 342.486 332.329 358.34 323.47 374.194 314.61 388.317 302.958 400.027 289.076 411.737 275.194 420.842 259.309 426.903 242.189 424.077 249.329 418.734 255.193 411.888 258.67 405.041 262.146 397.154 263.001 389.722 261.07 382.29 259.14 375.815 254.556 371.526 248.187 367.236 241.818 365.422 234.095 366.427 226.482 361.523 222.284 357.567 217.091 354.822 211.249 352.077 205.406 350.606 199.045 350.506 192.591 350.406 186.136 351.679 179.733 354.242 173.808 356.804 167.883 360.598 162.57 365.369 158.222 370.141 153.874 375.783 150.59 381.921 148.589 388.058 146.587 394.551 145.913 400.969 146.612 407.387 147.31 413.583 149.366 419.146 152.641 424.709 155.916 429.512 160.337 433.237 165.609" fill="#FF0000" fill-opacity="0.4" transform="matrix(1.0006 0 0 1 351.667 168.207)"/></g><g clip-path="url(#clip2)"><path d="M433.237 165.609C434.773 174.284 435.545 183.076 435.545 191.885 435.545 200.694 434.773 209.486 433.237 218.16 438.666 210.476 441.582 201.294 441.582 191.885 441.582 182.476 438.666 173.294 433.237 165.609" fill="#008000" fill-opacity="0.4" transform="matrix(1.0006 0 0 1 351.667 168.207)"/></g><g clip-path="url(#clip3)"><path d="M433.237 165.609C429.512 160.337 424.709 155.916 419.146 152.641 413.583 149.366 407.387 147.31 400.969 146.612 394.551 145.913 388.058 146.587 381.921 148.589 375.783 150.59 370.141 153.874 365.369 158.222 360.598 162.57 356.804 167.883 354.242 173.808 351.679 179.733 350.406 186.136 350.506 192.591 350.606 199.045 352.077 205.406 354.822 211.249 357.567 217.091 361.523 222.284 366.427 226.482 367.397 219.136 370.931 212.363 376.402 207.364 381.872 202.366 388.936 199.456 396.34 199.151 403.744 198.846 411.023 201.166 416.886 205.698 422.749 210.23 426.827 216.689 428.398 223.931 429.282 223.038 430.129 222.109 430.937 221.146 431.745 220.183 432.512 219.187 433.237 218.16 434.773 209.486 435.545 200.694 435.545 191.885 435.545 183.076 434.773 174.284 433.237 165.609" fill="#B25900" fill-opacity="0.4" transform="matrix(1.0006 0 0 1 351.667 168.207)"/></g><g clip-path="url(#clip4)"><path d="M428.398 223.931C420.304 232.104 409.407 236.914 397.914 237.387 386.421 237.86 375.166 233.962 366.427 226.482 365.422 234.095 367.236 241.818 371.526 248.187 375.815 254.556 382.29 259.14 389.722 261.07 397.154 263.001 405.041 262.146 411.888 258.67 418.734 255.193 424.077 249.329 426.903 242.189 427.066 241.731 427.226 241.272 427.383 240.812 427.541 240.352 427.697 239.891 427.85 239.43 428.583 236.92 429.001 234.328 429.093 231.715 429.186 229.101 428.952 226.487 428.398 223.931" fill="#B200B2" fill-opacity="0.4" transform="matrix(1.0006 0 0 1 351.667 168.207)"/></g><g clip-path="url(#clip5)"><path d="M366.427 226.482C375.166 233.962 386.421 237.86 397.914 237.387 409.407 236.914 420.304 232.104 428.398 223.931 426.827 216.689 422.749 210.23 416.886 205.698 411.023 201.166 403.744 198.846 396.34 199.151 388.936 199.456 381.872 202.366 376.402 207.364 370.931 212.363 367.397 219.136 366.427 226.482" fill="#663366" fill-opacity="0.4" transform="matrix(1.0006 0 0 1 351.667 168.207)"/></g><path d="M4.23496 4.6139C3.61034 4.6139 3.11896 4.44664 2.76084 4.11212 2.40411 3.7776 2.22575 3.31815 2.22575 2.73378 2.22575 2.14802 2.40411 1.68788 2.76084 1.35336 3.11896 1.01883 3.61034 0.851573 4.23496 0.851573 4.85959 0.851573 5.35165 1.01953 5.71116 1.35544 6.07205 1.69274 6.2525 2.15218 6.2525 2.73378 6.2525 3.31815 6.07344 3.7776 5.71532 4.11212 5.35859 4.44664 4.86514 4.6139 4.23496 4.6139ZM2.92117 5.1719C2.35761 5.31071 1.91829 5.57305 1.60321 5.95893 1.2895 6.3462 1.13265 6.81744 1.13265 7.37266 1.13265 8.14859 1.40888 8.76211 1.96132 9.21323 2.51516 9.66435 3.27304 9.8899 4.23496 9.8899 5.20244 9.8899 5.9617 9.66435 6.51276 9.21323 7.06382 8.76211 7.33935 8.14859 7.33935 7.37266 7.33935 6.81744 7.18181 6.3462 6.86672 5.95893 6.55302 5.57305 6.11647 5.31071 5.55709 5.1719 6.19004 5.02477 6.6828 4.73605 7.03537 4.30575 7.38932 3.87684 7.5663 3.35285 7.5663 2.73378 7.5663 1.79129 7.27897 1.06811 6.70431 0.564245 6.12966 0.0617685 5.30654-0.18947 4.23496-0.18947 3.16477-0.18947 2.34165 0.0617685 1.76561 0.564245 1.19095 1.06811 0.903625 1.79129 0.903625 2.73378 0.903625 3.35285 1.0813 3.87684 1.43664 4.30575 1.79337 4.73605 2.28821 5.02477 2.92117 5.1719ZM2.4402 7.24774C2.4402 6.74526 2.59705 6.35314 2.91076 6.07136 3.22584 5.78959 3.66725 5.6487 4.23496 5.6487 4.7999 5.6487 5.2413 5.78959 5.55917 6.07136 5.87842 6.35314 6.03805 6.74526 6.03805 7.24774 6.03805 7.7516 5.87842 8.14442 5.55917 8.4262 5.2413 8.70797 4.7999 8.84886 4.23496 8.84886 3.66725 8.84886 3.22584 8.70797 2.91076 8.4262 2.59705 8.14442 2.4402 7.7516 2.4402 7.24774Z" transform="matrix(1.0006 0 0 -1 599.884 364.98)"/><path d="M4.23496 4.6139C3.61034 4.6139 3.11896 4.44664 2.76084 4.11212 2.40411 3.7776 2.22575 3.31815 2.22575 2.73378 2.22575 2.14802 2.40411 1.68788 2.76084 1.35336 3.11896 1.01883 3.61034 0.851573 4.23496 0.851573 4.85959 0.851573 5.35165 1.01953 5.71116 1.35544 6.07205 1.69274 6.2525 2.15218 6.2525 2.73378 6.2525 3.31815 6.07344 3.7776 5.71532 4.11212 5.35859 4.44664 4.86514 4.6139 4.23496 4.6139ZM2.92117 5.1719C2.35761 5.31071 1.91829 5.57305 1.60321 5.95893 1.2895 6.3462 1.13265 6.81744 1.13265 7.37266 1.13265 8.14859 1.40888 8.76211 1.96132 9.21323 2.51516 9.66435 3.27304 9.8899 4.23496 9.8899 5.20244 9.8899 5.9617 9.66435 6.51276 9.21323 7.06382 8.76211 7.33935 8.14859 7.33935 7.37266 7.33935 6.81744 7.18181 6.3462 6.86672 5.95893 6.55302 5.57305 6.11647 5.31071 5.55709 5.1719 6.19004 5.02477 6.6828 4.73605 7.03537 4.30575 7.38932 3.87684 7.5663 3.35285 7.5663 2.73378 7.5663 1.79129 7.27897 1.06811 6.70431 0.564245 6.12966 0.0617685 5.30654-0.18947 4.23496-0.18947 3.16477-0.18947 2.34165 0.0617685 1.76561 0.564245 1.19095 1.06811 0.903625 1.79129 0.903625 2.73378 0.903625 3.35285 1.0813 3.87684 1.43664 4.30575 1.79337 4.73605 2.28821 5.02477 2.92117 5.1719ZM2.4402 7.24774C2.4402 6.74526 2.59705 6.35314 2.91076 6.07136 3.22584 5.78959 3.66725 5.6487 4.23496 5.6487 4.7999 5.6487 5.2413 5.78959 5.55917 6.07136 5.87842 6.35314 6.03805 6.74526 6.03805 7.24774 6.03805 7.7516 5.87842 8.14442 5.55917 8.4262 5.2413 8.70797 4.7999 8.84886 4.23496 8.84886 3.66725 8.84886 3.22584 8.70797 2.91076 8.4262 2.59705 8.14442 2.4402 7.7516 2.4402 7.24774Z" transform="matrix(1.0006 0 0 -1 608.367 364.98)"/><path d="M4.23496 8.84886C3.55898 8.84886 3.05025 8.51573 2.70879 7.84946 2.36872 7.18458 2.19868 6.18379 2.19868 4.84709 2.19868 3.51595 2.36872 2.51724 2.70879 1.85097 3.05025 1.18471 3.55898 0.851573 4.23496 0.851573 4.9165 0.851573 5.4273 1.18471 5.76738 1.85097 6.10884 2.51724 6.27957 3.51595 6.27957 4.84709 6.27957 6.18379 6.10884 7.18458 5.76738 7.84946 5.4273 8.51573 4.9165 8.84886 4.23496 8.84886ZM4.23496 9.8899C5.32459 9.8899 6.15673 9.45891 6.73138 8.59693 7.30604 7.73633 7.59336 6.48639 7.59336 4.84709 7.59336 3.21196 7.30604 1.96341 6.73138 1.10142 6.15673 0.240828 5.32459-0.18947 4.23496-0.18947 3.14672-0.18947 2.31528 0.240828 1.74062 1.10142 1.16597 1.96341 0.87864 3.21196 0.87864 4.84709 0.87864 6.48639 1.16597 7.73633 1.74062 8.59693 2.31528 9.45891 3.14672 9.8899 4.23496 9.8899Z" transform="matrix(1.0006 0 0 -1 616.85 364.98)"/><path d="M5.40718 5.23853C6.03596 5.10388 6.52664 4.8235 6.87921 4.39736 7.23316 3.97262 7.41014 3.44793 7.41014 2.82331 7.41014 1.86555 7.08048 1.12363 6.42115 0.597558 5.76182 0.072873 4.82489-0.18947 3.61034-0.18947 3.20363-0.18947 2.78444-0.149216 2.35276-0.0687088 1.92107 0.0117985 1.4755 0.132559 1.01606 0.293574L1.01606 1.56156C1.37973 1.34919 1.7781 1.18887 2.21117 1.0806 2.64564 0.972334 3.09953 0.9182 3.57286 0.9182 4.39598 0.9182 5.02338 1.0806 5.45506 1.40541 5.88675 1.73021 6.10259 2.20285 6.10259 2.82331 6.10259 3.39658 5.90202 3.84422 5.50087 4.16625 5.09972 4.48967 4.54172 4.65138 3.82687 4.65138L2.69422 4.65138 2.69422 5.73198 3.87892 5.73198C4.52437 5.73198 5.01852 5.86107 5.36137 6.11925 5.70422 6.37743 5.87564 6.74943 5.87564 7.23525 5.87564 7.73356 5.69867 8.11597 5.34471 8.38247 4.99215 8.65037 4.4862 8.78432 3.82687 8.78432 3.46598 8.78432 3.0794 8.74476 2.66715 8.66564 2.2549 8.58791 1.8017 8.46715 1.30755 8.30336L1.30755 9.47349C1.80725 9.61229 2.27503 9.7164 2.71088 9.7858 3.14672 9.8552 3.55759 9.8899 3.94347 9.8899 4.94148 9.8899 5.73059 9.66296 6.3108 9.20906 6.8924 8.75656 7.18319 8.14442 7.18319 7.37266 7.18319 6.8341 7.02912 6.37951 6.72097 6.0089 6.41282 5.63829 5.97489 5.3815 5.40718 5.23853Z" transform="matrix(1.0006 0 0 -1 786.253 363.769)"/><path d="M4.39945 5.38011C3.80952 5.38011 3.34175 5.17815 2.99612 4.77422 2.65188 4.37169 2.47976 3.81924 2.47976 3.11688 2.47976 2.41869 2.65188 1.86624 2.99612 1.45954 3.34175 1.05423 3.80952 0.851573 4.39945 0.851573 4.98937 0.851573 5.45645 1.05423 5.80069 1.45954 6.14493 1.86624 6.31705 2.41869 6.31705 3.11688 6.31705 3.81924 6.14493 4.37169 5.80069 4.77422 5.45645 5.17815 4.98937 5.38011 4.39945 5.38011ZM7.0083 9.50056 7.0083 8.30336C6.67794 8.45882 6.34481 8.5775 6.0089 8.65939 5.67299 8.74268 5.33985 8.78432 5.0095 8.78432 4.14196 8.78432 3.47916 8.49144 3.02111 7.90568 2.56444 7.31992 2.30348 6.43503 2.23824 5.25102 2.49364 5.62857 2.81429 5.91798 3.20017 6.11925 3.58743 6.32052 4.01287 6.42115 4.47648 6.42115 5.45229 6.42115 6.22335 6.1248 6.78968 5.5321 7.35601 4.94079 7.63917 4.13572 7.63917 3.11688 7.63917 2.11887 7.34421 1.31796 6.75428 0.714155 6.16436 0.111739 5.37941-0.18947 4.39945-0.18947 3.27512-0.18947 2.41591 0.240828 1.82182 1.10142 1.22774 1.96341 0.930692 3.21196 0.930692 4.84709 0.930692 6.38229 1.29506 7.60655 2.02379 8.51989 2.75252 9.43323 3.7304 9.8899 4.95745 9.8899 5.2878 9.8899 5.62094 9.85729 5.95685 9.79205 6.29276 9.72681 6.64324 9.62964 7.0083 9.50056Z" transform="matrix(1.0006 0 0 -1 726.997 350.5)"/><path d="M5.40718 5.23853C6.03596 5.10388 6.52664 4.8235 6.87921 4.39736 7.23316 3.97262 7.41014 3.44793 7.41014 2.82331 7.41014 1.86555 7.08048 1.12363 6.42115 0.597558 5.76182 0.072873 4.82489-0.18947 3.61034-0.18947 3.20363-0.18947 2.78444-0.149216 2.35276-0.0687088 1.92107 0.0117985 1.4755 0.132559 1.01606 0.293574L1.01606 1.56156C1.37973 1.34919 1.7781 1.18887 2.21117 1.0806 2.64564 0.972334 3.09953 0.9182 3.57286 0.9182 4.39598 0.9182 5.02338 1.0806 5.45506 1.40541 5.88675 1.73021 6.10259 2.20285 6.10259 2.82331 6.10259 3.39658 5.90202 3.84422 5.50087 4.16625 5.09972 4.48967 4.54172 4.65138 3.82687 4.65138L2.69422 4.65138 2.69422 5.73198 3.87892 5.73198C4.52437 5.73198 5.01852 5.86107 5.36137 6.11925 5.70422 6.37743 5.87564 6.74943 5.87564 7.23525 5.87564 7.73356 5.69867 8.11597 5.34471 8.38247 4.99215 8.65037 4.4862 8.78432 3.82687 8.78432 3.46598 8.78432 3.0794 8.74476 2.66715 8.66564 2.2549 8.58791 1.8017 8.46715 1.30755 8.30336L1.30755 9.47349C1.80725 9.61229 2.27503 9.7164 2.71088 9.7858 3.14672 9.8552 3.55759 9.8899 3.94347 9.8899 4.94148 9.8899 5.73059 9.66296 6.3108 9.20906 6.8924 8.75656 7.18319 8.14442 7.18319 7.37266 7.18319 6.8341 7.02912 6.37951 6.72097 6.0089 6.41282 5.63829 5.97489 5.3815 5.40718 5.23853Z" transform="matrix(1.0006 0 0 -1 735.48 350.5)"/><path d="M1.65318 1.10559 3.79981 1.10559 3.79981 8.51781 1.46371 8.04934 1.46371 9.24654 3.78731 9.71501 5.10111 9.71501 5.10111 1.10559 7.24774 1.10559 7.24774 0 1.65318 0 1.65318 1.10559Z" transform="matrix(1.0006 0 0 -1 739.782 422.675)"/><path d="M1.46371 0.201962 1.46371 1.39916C1.79406 1.24231 2.12789 1.12294 2.46519 1.04104 2.80387 0.959147 3.13631 0.9182 3.46251 0.9182 4.33004 0.9182 4.99215 1.20969 5.44882 1.79268 5.90688 2.37566 6.16852 3.26193 6.23376 4.4515 5.98252 4.07811 5.66327 3.79148 5.276 3.5916 4.89012 3.39172 4.4633 3.29178 3.99552 3.29178 3.02388 3.29178 2.2549 3.58535 1.68857 4.1725 1.12224 4.76103 0.83908 5.56541 0.83908 6.58564 0.83908 7.58226 1.13404 8.38178 1.72397 8.9842 2.31389 9.588 3.09884 9.8899 4.0788 9.8899 5.20313 9.8899 6.06095 9.45891 6.65226 8.59693 7.24496 7.73633 7.54131 6.48639 7.54131 4.84709 7.54131 3.31607 7.17764 2.09388 6.4503 1.18054 5.72435 0.267201 4.74785-0.18947 3.52081-0.18947 3.19045-0.18947 2.85593-0.15685 2.51724-0.0916118 2.17994-0.0263731 1.82876 0.0714849 1.46371 0.201962ZM4.0788 4.32033C4.66873 4.32033 5.13581 4.5216 5.48005 4.92413 5.82567 5.32806 5.99849 5.88189 5.99849 6.58564 5.99849 7.28383 5.82567 7.83558 5.48005 8.24089 5.13581 8.64621 4.66873 8.84886 4.0788 8.84886 3.48888 8.84886 3.0218 8.64621 2.67756 8.24089 2.33332 7.83558 2.1612 7.28383 2.1612 6.58564 2.1612 5.88189 2.33332 5.32806 2.67756 4.92413 3.0218 4.5216 3.48888 4.32033 4.0788 4.32033Z" transform="matrix(1.0006 0 0 -1 748.265 422.675)"/><path d="M2.5568 1.10559 7.14363 1.10559 7.14363 0 0.976498 0 0.976498 1.10559C1.47481 1.62194 2.15426 2.31458 3.01486 3.18351 3.87684 4.05382 4.41818 4.61529 4.63889 4.86792 5.05947 5.33985 5.35304 5.73961 5.51961 6.0672 5.68756 6.39478 5.77154 6.71681 5.77154 7.03328 5.77154 7.54964 5.5904 7.97022 5.22812 8.29503 4.86583 8.62122 4.39389 8.78432 3.8123 8.78432 3.40005 8.78432 2.96489 8.71283 2.50683 8.56986 2.05016 8.42689 1.56156 8.20966 1.04104 7.91817L1.04104 9.24654C1.56989 9.45891 2.06404 9.61923 2.52349 9.7275 2.98432 9.83577 3.4056 9.8899 3.78731 9.8899 4.79365 9.8899 5.59595 9.63797 6.1942 9.13411 6.79246 8.63163 7.09158 7.95981 7.09158 7.11865 7.09158 6.71889 7.01663 6.33995 6.86672 5.98183 6.7182 5.6251 6.44614 5.20382 6.05054 4.71801 5.94227 4.59169 5.59734 4.22802 5.01574 3.62699 4.43554 3.02596 3.61589 2.1855 2.5568 1.10559Z" transform="matrix(1.0006 0 0 -1 740.55 390.153)"/><path d="M5.03656 8.56986 1.71772 3.38339 5.03656 3.38339 5.03656 8.56986ZM4.69094 9.71501 6.34411 9.71501 6.34411 3.38339 7.73078 3.38339 7.73078 2.29029 6.34411 2.29029 6.34411 0 5.03656 0 5.03656 2.29029 0.651693 2.29029 0.651693 3.55828 4.69094 9.71501Z" transform="matrix(1.0006 0 0 -1 749.033 390.153)"/><path d="M-0.0474715 11.658 9.81412 11.658 9.81412 10.3288 5.6766 10.3288 5.6766 0 4.09255 0 4.09255 10.3288-0.0474715 10.3288-0.0474715 11.658Z" transform="matrix(1.0006 0 0 -1 508.854 209.357)"/><path d="M6.57356 7.40306C6.41199 7.49634 6.23626 7.56463 6.04638 7.60794 5.85649 7.65291 5.64745 7.6754 5.41925 7.6754 4.6064 7.6754 3.98261 7.41139 3.54787 6.88337 3.11313 6.35536 2.89576 5.59664 2.89576 4.60724L2.89576 0 1.45163 0 1.45163 8.74476 2.89576 8.74476 2.89576 7.38557C3.19892 7.91692 3.59201 8.31085 4.07506 8.56736 4.55977 8.82554 5.14858 8.95463 5.8415 8.95463 5.93977 8.95463 6.04887 8.94797 6.1688 8.93464 6.28873 8.92298 6.42115 8.90383 6.56606 8.87718L6.57356 7.40306Z" transform="matrix(1.0006 0 0 -1 516.268 209.357)"/><path d="M5.48171 4.39487C4.32074 4.39487 3.51623 4.26244 3.06816 3.9976 2.6201 3.73276 2.39606 3.2797 2.39606 2.63842 2.39606 2.12872 2.5643 1.72397 2.90076 1.42415 3.23723 1.12599 3.69362 0.976914 4.26994 0.976914 5.0678 0.976914 5.70741 1.25925 6.18879 1.82391 6.67017 2.38857 6.91086 3.13895 6.91086 4.07506L6.91086 4.39487 5.48171 4.39487ZM8.3475 4.98951 8.3475 0 6.91086 0 6.91086 1.3267C6.58272 0.797022 6.1738 0.40559 5.68409 0.152409 5.19439-0.100773 4.59558-0.227364 3.88767-0.227364 2.99321-0.227364 2.28113 0.0241522 1.75145 0.527184 1.22343 1.03022 0.959425 1.70315 0.959425 2.54597 0.959425 3.52872 1.28839 4.26994 1.94633 4.76964 2.60594 5.26934 3.58868 5.51919 4.89457 5.51919L6.91086 5.51919 6.91086 5.66161C6.91086 6.32288 6.69349 6.83424 6.25875 7.19569 5.82401 7.55714 5.21354 7.73786 4.42735 7.73786 3.92765 7.73786 3.44044 7.6779 2.96572 7.55797 2.49267 7.43804 2.03795 7.25815 1.60154 7.01829L1.60154 8.3475C2.12623 8.55071 2.63592 8.70228 3.13062 8.80222 3.62533 8.90383 4.1067 8.95463 4.57476 8.95463 5.84067 8.95463 6.78593 8.6265 7.41056 7.97022 8.03518 7.31561 8.3475 6.32204 8.3475 4.98951Z" transform="matrix(1.0006 0 0 -1 522.846 209.357)"/><path d="M8.77724 5.27934 8.77724 0 7.3406 0 7.3406 5.23186C7.3406 6.0597 7.17903 6.6785 6.85589 7.08825 6.53275 7.49967 6.04887 7.70538 5.40426 7.70538 4.62806 7.70538 4.01593 7.45803 3.56786 6.96333 3.1198 6.47029 2.89576 5.79653 2.89576 4.94204L2.89576 0 1.45163 0 1.45163 8.74476 2.89576 8.74476 2.89576 7.38557C3.24056 7.91192 3.64531 8.30502 4.11004 8.56487 4.57642 8.82471 5.11443 8.95463 5.72407 8.95463 6.72847 8.95463 7.48801 8.64398 8.0027 8.02269 8.51906 7.4014 8.77724 6.48694 8.77724 5.27934Z" transform="matrix(1.0006 0 0 -1 532.651 209.357)"/><path d="M7.08076 8.48741 7.08076 7.12823C6.676 7.33643 6.25458 7.49218 5.81651 7.59545 5.38011 7.70038 4.92705 7.75285 4.45733 7.75285 3.74442 7.75285 3.20974 7.64375 2.85329 7.42555 2.49684 7.20735 2.31861 6.87921 2.31861 6.44114 2.31861 6.10801 2.44603 5.8465 2.70088 5.65661 2.95573 5.46672 3.46875 5.286 4.23996 5.11443L4.73216 5.0045C5.75155 4.7863 6.47612 4.47815 6.90586 4.08005 7.3356 3.68196 7.55047 3.12646 7.55047 2.41355 7.55047 1.60071 7.229 0.956926 6.58605 0.482211 5.9431 0.00916117 5.05947-0.227364 3.93514-0.227364 3.46709-0.227364 2.97905-0.181558 2.47102-0.0899461 1.96299 0.00166567 1.42831 0.13825 0.86698 0.319808L0.86698 1.80392C1.39833 1.52742 1.92135 1.32004 2.43604 1.18179 2.95073 1.04521 3.46126 0.976914 3.96762 0.976914 4.64388 0.976914 5.16357 1.09268 5.52669 1.32421 5.89147 1.55573 6.07386 1.8822 6.07386 2.30362 6.07386 2.69339 5.94227 2.99237 5.6791 3.20058 5.41759 3.40879 4.84126 3.6095 3.95013 3.80272L3.45043 3.92015C2.56096 4.1067 1.91802 4.39403 1.52159 4.78213 1.12682 5.17023 0.929443 5.70241 0.929443 6.37868 0.929443 7.20152 1.22093 7.83614 1.80392 8.28253 2.3869 8.7306 3.21474 8.95463 4.28743 8.95463 4.81711 8.95463 5.31598 8.91549 5.78403 8.8372 6.25375 8.76058 6.68599 8.64398 7.08076 8.48741Z" transform="matrix(1.0006 0 0 -1 542.791 209.357)"/><path d="M1.56906 11.658 8.93964 11.658 8.93964 10.3288 3.14561 10.3288 3.14561 6.87838 8.69729 6.87838 8.69729 5.55167 3.14561 5.55167 3.14561 1.3267 9.07956 1.3267 9.07956 0 1.56906 0 1.56906 11.658Z" transform="matrix(1.0006 0 0 -1 551.127 209.357)"/><path d="M3.14561 10.3613 3.14561 1.29672 5.05197 1.29672C6.66101 1.29672 7.83863 1.66067 8.58485 2.38857 9.33107 3.11813 9.70418 4.26911 9.70418 5.8415 9.70418 7.40223 9.33107 8.54571 8.58485 9.27194 7.83863 9.99817 6.66101 10.3613 5.05197 10.3613L3.14561 10.3613ZM1.56906 11.658 4.80962 11.658C7.06826 11.658 8.7256 11.1883 9.78164 10.2489 10.8393 9.30942 11.3682 7.8403 11.3682 5.8415 11.3682 3.83104 10.8368 2.35442 9.77414 1.41165 8.71311 0.470551 7.05827 0 4.80962 0L1.56906 0 1.56906 11.658Z" transform="matrix(1.0006 0 0 -1 770.73 314.552)"/><path d="M1.5066 8.74476 2.94324 8.74476 2.94324 0 1.5066 0 1.5066 8.74476ZM1.5066 12.1502 2.94324 12.1502 2.94324 10.3288 1.5066 10.3288 1.5066 12.1502Z" transform="matrix(1.0006 0 0 -1 783.051 314.552)"/><path d="M7.08076 8.48741 7.08076 7.12823C6.676 7.33643 6.25458 7.49218 5.81651 7.59545 5.38011 7.70038 4.92705 7.75285 4.45733 7.75285 3.74442 7.75285 3.20974 7.64375 2.85329 7.42555 2.49684 7.20735 2.31861 6.87921 2.31861 6.44114 2.31861 6.10801 2.44603 5.8465 2.70088 5.65661 2.95573 5.46672 3.46875 5.286 4.23996 5.11443L4.73216 5.0045C5.75155 4.7863 6.47612 4.47815 6.90586 4.08005 7.3356 3.68196 7.55047 3.12646 7.55047 2.41355 7.55047 1.60071 7.229 0.956926 6.58605 0.482211 5.9431 0.00916117 5.05947-0.227364 3.93514-0.227364 3.46709-0.227364 2.97905-0.181558 2.47102-0.0899461 1.96299 0.00166567 1.42831 0.13825 0.86698 0.319808L0.86698 1.80392C1.39833 1.52742 1.92135 1.32004 2.43604 1.18179 2.95073 1.04521 3.46126 0.976914 3.96762 0.976914 4.64388 0.976914 5.16357 1.09268 5.52669 1.32421 5.89147 1.55573 6.07386 1.8822 6.07386 2.30362 6.07386 2.69339 5.94227 2.99237 5.6791 3.20058 5.41759 3.40879 4.84126 3.6095 3.95013 3.80272L3.45043 3.92015C2.56096 4.1067 1.91802 4.39403 1.52159 4.78213 1.12682 5.17023 0.929443 5.70241 0.929443 6.37868 0.929443 7.20152 1.22093 7.83614 1.80392 8.28253 2.3869 8.7306 3.21474 8.95463 4.28743 8.95463 4.81711 8.95463 5.31598 8.91549 5.78403 8.8372 6.25375 8.76058 6.68599 8.64398 7.08076 8.48741Z" transform="matrix(1.0006 0 0 -1 787.496 314.552)"/><path d="M2.92824 11.2283 2.92824 8.74476 5.88647 8.74476 5.88647 7.62793 2.92824 7.62793 2.92824 2.88077C2.92824 2.16787 3.02569 1.70981 3.22057 1.5066 3.41545 1.30339 3.81271 1.20178 4.41235 1.20178L5.88647 1.20178 5.88647 0 4.41235 0C3.30302 0 2.53765 0.206543 2.11623 0.619629 1.69482 1.03438 1.48411 1.78809 1.48411 2.88077L1.48411 7.62793 0.429742 7.62793 0.429742 8.74476 1.48411 8.74476 1.48411 11.2283 2.92824 11.2283Z" transform="matrix(1.0006 0 0 -1 795.832 314.552)"/><path d="M1.56906 11.658 3.92015 11.658 6.89337 3.72527 9.88407 11.658 12.2352 11.658 12.2352 0 10.6961 0 10.6961 10.2364 7.69039 2.24116 6.10634 2.24116 3.10064 10.2364 3.10064 0 1.56906 0 1.56906 11.658Z" transform="matrix(1.0006 0 0 -1 802.105 314.552)"/><path d="M1.35919 3.45043 1.35919 8.74476 2.79582 8.74476 2.79582 3.5054C2.79582 2.67756 2.95656 2.05627 3.27803 1.64152 3.60117 1.22843 4.08588 1.02189 4.73216 1.02189 5.5067 1.02189 6.11883 1.26924 6.56856 1.76394 7.01996 2.25865 7.24566 2.93324 7.24566 3.78773L7.24566 8.74476 8.68229 8.74476 8.68229 0 7.24566 0 7.24566 1.34419C6.89753 0.812846 6.49277 0.418083 6.03138 0.159904 5.57166-0.0982744 5.03698-0.227364 4.42735-0.227364 3.42295-0.227364 2.66007 0.0849491 2.13872 0.709575 1.61903 1.3342 1.35919 2.24782 1.35919 3.45043ZM4.97452 8.95463 4.97452 8.95463Z" transform="matrix(1.0006 0 0 -1 815.91 314.552)"/><path d="M1.5066 12.1502 2.94324 12.1502 2.94324 0 1.5066 0 1.5066 12.1502Z" transform="matrix(1.0006 0 0 -1 826.051 314.552)"/><path d="M2.92824 11.2283 2.92824 8.74476 5.88647 8.74476 5.88647 7.62793 2.92824 7.62793 2.92824 2.88077C2.92824 2.16787 3.02569 1.70981 3.22057 1.5066 3.41545 1.30339 3.81271 1.20178 4.41235 1.20178L5.88647 1.20178 5.88647 0 4.41235 0C3.30302 0 2.53765 0.206543 2.11623 0.619629 1.69482 1.03438 1.48411 1.78809 1.48411 2.88077L1.48411 7.62793 0.429742 7.62793 0.429742 8.74476 1.48411 8.74476 1.48411 11.2283 2.92824 11.2283Z" transform="matrix(1.0006 0 0 -1 830.496 314.552)"/><path d="M10.2988 10.7586 10.2988 9.09705C9.76748 9.59175 9.20115 9.9607 8.59984 10.2039 7.99854 10.4487 7.35975 10.5712 6.68349 10.5712 5.35096 10.5712 4.33074 10.1639 3.62283 9.34939 2.91492 8.53488 2.56096 7.35726 2.56096 5.81651 2.56096 4.28077 2.91492 3.10564 3.62283 2.29113 4.33074 1.47661 5.35096 1.06936 6.68349 1.06936 7.35975 1.06936 7.99854 1.19179 8.59984 1.43664 9.20115 1.68149 9.76748 2.05127 10.2988 2.54597L10.2988 0.896962C9.74749 0.522187 9.16284 0.240689 8.54488 0.0524685 7.92858-0.134086 7.2773-0.227364 6.59105-0.227364 4.82544-0.227364 3.43461 0.312313 2.41855 1.39167 1.40416 2.47268 0.896962 3.94763 0.896962 5.81651 0.896962 7.69039 1.40416 9.167 2.41855 10.2464 3.43461 11.3274 4.82544 11.8679 6.59105 11.8679 7.2873 11.8679 7.94357 11.7754 8.55987 11.5906 9.17783 11.4057 9.75748 11.1283 10.2988 10.7586Z" transform="matrix(1.0006 0 0 -1 714.176 445.587)"/><path d="M4.89457 7.73786C4.12503 7.73786 3.51623 7.43721 3.06816 6.8359 2.6201 6.2346 2.39606 5.41092 2.39606 4.36488 2.39606 3.31884 2.61843 2.49517 3.06316 1.89386 3.50956 1.29256 4.12003 0.991905 4.89457 0.991905 5.66077 0.991905 6.26708 1.29339 6.71348 1.89636 7.16154 2.501 7.38557 3.32384 7.38557 4.36488 7.38557 5.40093 7.16154 6.2221 6.71348 6.82841 6.26708 7.43471 5.66077 7.73786 4.89457 7.73786ZM4.89457 8.95463C6.14382 8.95463 7.1249 8.54821 7.8378 7.73536 8.55237 6.92418 8.90966 5.80069 8.90966 4.36488 8.90966 2.93407 8.55237 1.81058 7.8378 0.994404 7.1249 0.179892 6.14382-0.227364 4.89457-0.227364 3.64032-0.227364 2.65757 0.179892 1.94633 0.994404 1.23676 1.81058 0.881971 2.93407 0.881971 4.36488 0.881971 5.80069 1.23676 6.92418 1.94633 7.73536 2.65757 8.54821 3.64032 8.95463 4.89457 8.95463Z" transform="matrix(1.0006 0 0 -1 725.348 445.587)"/><path d="M8.31501 7.06576C8.6748 7.71204 9.10454 8.18842 9.60424 8.49491 10.1039 8.80139 10.6919 8.95463 11.3682 8.95463 12.2793 8.95463 12.9822 8.63566 13.4769 7.99771 13.9716 7.36142 14.219 6.4553 14.219 5.27934L14.219 0 12.7748 0 12.7748 5.23186C12.7748 6.06969 12.6258 6.69099 12.3276 7.09575 12.0311 7.50217 11.5789 7.70538 10.9709 7.70538 10.2264 7.70538 9.63756 7.45803 9.20448 6.96333 8.77307 6.47029 8.55737 5.79653 8.55737 4.94204L8.55737 0 7.11324 0 7.11324 5.23186C7.11324 6.07469 6.96499 6.69765 6.6685 7.10074 6.37201 7.50383 5.91395 7.70538 5.29433 7.70538 4.55977 7.70538 3.97595 7.4572 3.54288 6.96083 3.11147 6.46446 2.89576 5.79153 2.89576 4.94204L2.89576 0 1.45163 0 1.45163 8.74476 2.89576 8.74476 2.89576 7.38557C3.2239 7.92192 3.617 8.31751 4.07506 8.57236 4.53312 8.82721 5.07696 8.95463 5.70658 8.95463 6.34286 8.95463 6.88337 8.79306 7.32811 8.46992 7.77284 8.14845 8.10181 7.6804 8.31501 7.06576Z" transform="matrix(1.0006 0 0 -1 735.137 445.587)"/><path d="M2.89576 1.31171 2.89576-3.32551 1.45163-3.32551 1.45163 8.74476 2.89576 8.74476 2.89576 7.41805C3.19892 7.93774 3.58035 8.32334 4.04008 8.57486 4.50147 8.82804 5.05197 8.95463 5.69159 8.95463 6.75428 8.95463 7.6171 8.53322 8.28004 7.69039 8.94464 6.84756 9.27694 5.73906 9.27694 4.36488 9.27694 2.99071 8.94464 1.88137 8.28004 1.03688 7.6171 0.19405 6.75428-0.227364 5.69159-0.227364 5.05197-0.227364 4.50147-0.100773 4.04008 0.152409 3.58035 0.40559 3.19892 0.792025 2.89576 1.31171ZM7.78533 4.36488C7.78533 5.42092 7.56796 6.24959 7.13322 6.85089 6.69848 7.4522 6.10134 7.75285 5.3418 7.75285 4.58059 7.75285 3.98261 7.4522 3.54787 6.85089 3.11313 6.24959 2.89576 5.42092 2.89576 4.36488 2.89576 3.30885 3.11313 2.48018 3.54787 1.87887 3.98261 1.27757 4.58059 0.976914 5.3418 0.976914 6.10134 0.976914 6.69848 1.27757 7.13322 1.87887 7.56796 2.48018 7.78533 3.30885 7.78533 4.36488Z" transform="matrix(1.0006 0 0 -1 750.723 445.587)"/><path d="M1.5066 12.1502 2.94324 12.1502 2.94324 0 1.5066 0 1.5066 12.1502Z" transform="matrix(1.0006 0 0 -1 760.879 445.587)"/><path d="M1.56906 11.658 8.93964 11.658 8.93964 10.3288 3.14561 10.3288 3.14561 6.87838 8.69729 6.87838 8.69729 5.55167 3.14561 5.55167 3.14561 1.3267 9.07956 1.3267 9.07956 0 1.56906 0 1.56906 11.658Z" transform="matrix(1.0006 0 0 -1 765.325 445.587)"/><path d="M8.77724 8.74476 5.61413 4.48981 8.93964 0 7.24566 0 4.69968 3.43544 2.15621 0 0.459724 0 3.85769 4.57476 0.749551 8.74476 2.44354 8.74476 4.76215 5.62913 7.08076 8.74476 8.77724 8.74476Z" transform="matrix(1.0006 0 0 -1 775.434 445.587)"/></g></svg>