<svg width="3132" height="1445" xmlns="http://www.w3.org/2000/svg" xmlns:xlink="http://www.w3.org/1999/xlink" xml:space="preserve" overflow="hidden"><defs><clipPath id="clip0"><rect x="628" y="581" width="3132" height="1445"/></clipPath></defs><g clip-path="url(#clip0)" transform="translate(-628 -581)"><path d="M51.5852-10.2095 2242.41-5.83289 2242.37 14.7921 51.544 10.4155ZM61.8131 31.061 0 0 61.9367-30.8138ZM2232.15-26.4784 2293.96 4.58261 2232.02 35.3964Z" transform="matrix(1 0 0 -1 997.5 1243.08)"/><path d="M6.875-1.54669e-05 6.87528 126.041-6.87472 126.041-6.875 1.54669e-05ZM20.6253 119.166 0.000360892 160.416-20.6247 119.166Z" transform="matrix(1 0 0 -1 2089 1237.42)"/><text font-family="Times New Roman,Times New Roman_MSFontService,sans-serif" font-weight="400" font-size="92" transform="matrix(1 0 0 1 683.648 1178)">Rule finding<tspan font-size="92" x="2390.74" y="-1">Triple prediction</tspan></text><path d="M1143.88 1237 1143.88 1670.13 1130.13 1670.13 1130.13 1237ZM1157.63 1663.25 1137 1704.5 1116.38 1663.25Z"/><text fill="#1F4E79" font-family="Times New Roman,Times New Roman_MSFontService,sans-serif" font-weight="700" font-size="83" transform="matrix(1 0 0 1 791.771 1802)">Symbolic reasoning</text><path d="M3187.88 1237 3187.88 1633.25 3174.13 1633.25 3174.12 1237ZM3201.63 1626.38 3181 1667.63 3160.38 1626.38Z"/><text fill="#1F4E79" font-family="Times New Roman,Times New Roman_MSFontService,sans-serif" font-weight="700" font-size="83" transform="matrix(1 0 0 1 2877.19 1739)">Neural reasoning</text><path d="M6.875-9.33344e-06 6.87531 231.458-6.87469 231.458-6.875 9.33344e-06ZM20.6253 224.583 0.000360892 265.833-20.6247 224.583Z" transform="matrix(1 0 0 -1 2975 1237.83)"/><text fill="#1F4E79" font-family="Times New Roman,Times New Roman_MSFontService,sans-serif" font-weight="700" font-size="83" transform="matrix(1 0 0 1 2371.66 686)">Symbolic<tspan font-size="83" x="325.417" y="0">-</tspan>driven Neural reasoning</text><path d="M2683.88 1242 2683.88 1396.51 2670.13 1396.51 2670.13 1242ZM2697.63 1389.64 2677 1430.89 2656.38 1389.64Z"/><text fill="#1F4E79" font-family="Times New Roman,Times New Roman_MSFontService,sans-serif" font-weight="700" font-size="83" transform="matrix(1 0 0 1 1970.83 1527)">Symbolic<tspan font-size="83" x="325.417" y="0">-</tspan>driven probabilistic reasoning</text><path d="M6.875-7.5186e-06 6.87532 295.625-6.87468 295.625-6.875 7.5186e-06ZM20.6253 288.75 0.000360892 330-20.6247 288.75Z" transform="matrix(1 0 0 -1 1384 1237)"/><text fill="#1F4E79" font-family="Times New Roman,Times New Roman_MSFontService,sans-serif" font-weight="700" font-size="83" transform="matrix(1 0 0 1 1004.9 786)">Path<tspan font-size="83" x="165" y="0">-</tspan><tspan font-size="83" x="192.5" y="0">based reasoning</tspan></text><path d="M1871.87 1237 1871.88 1566.61 1858.13 1566.61 1858.12 1237ZM1885.63 1559.73 1865 1600.98 1844.38 1559.73Z"/><text fill="#1F4E79" font-family="Times New Roman,Times New Roman_MSFontService,sans-serif" font-weight="700" font-size="83" transform="matrix(1 0 0 1 1451.02 1698)">Graph<tspan font-size="83" x="233.75" y="0">-</tspan>based reasoning<tspan font-size="83" x="197.896" y="-817">Matrix</tspan><tspan font-size="83" x="445.396" y="-817">-</tspan>based reasoning<tspan fill="#000000" font-weight="400" font-size="64" x="-396.281" y="199">AMIE</tspan><tspan fill="#000000" font-weight="400" font-size="64" x="279.304" y="98">CogGraph</tspan><tspan fill="#000000" font-weight="400" font-size="64" x="1638.41" y="120">TransE</tspan><tspan fill="#000000" font-weight="400" font-size="64" x="1606.92" y="197">ComplEx</tspan><tspan fill="#000000" font-weight="400" font-size="64" x="1640.72" y="274">ConvE</tspan><tspan fill="#000000" font-weight="400" font-size="64" x="-129.301" y="-820">PRA</tspan><tspan fill="#000000" font-weight="400" font-size="64" x="504.974" y="-727">TensorLog</tspan><tspan fill="#000000" font-weight="400" font-size="64" x="570.63" y="-650">NLIL</tspan><tspan fill="#000000" font-weight="400" font-size="64" x="1438.21" y="-925">KALE</tspan><tspan fill="#000000" font-weight="400" font-size="64" x="1436.19" y="-848">RUGE</tspan><tspan fill="#000000" font-weight="400" font-size="64" x="1459.68" y="-771">IterE</tspan><tspan fill="#000000" font-weight="400" font-size="64" x="1155.63" y="-86">MLN</tspan><tspan fill="#000000" font-weight="400" font-size="64" x="1141.6" y="-9">Prolog</tspan></text></g></svg>